<svg id="Layer_1" data-name="Layer 1" xmlns="http://www.w3.org/2000/svg" viewBox="0 0 130 120"><defs><style>.cls-1{fill:#202020;}.cls-2{fill:#fff;}</style></defs><title>gnos</title><path class="cls-1" d="M49.12,102.91c-1.3-.68-5.26-8.15-5.26-8.15s1.78,6.18,1.37,10.48h6.69A5.76,5.76,0,0,0,49.12,102.91Z"/><path class="cls-1" d="M124.4,109.49L66.37,9a1.58,1.58,0,0,0-2.74,0L5.6,109.47A1.49,1.49,0,0,0,7,111.71H123A1.47,1.47,0,0,0,124.4,109.49Z"/><path class="cls-2" d="M45.27,105.25c0.41-4.3-1.39-10.41-1.39-10.41s3.95,7.31,5.25,8a5.84,5.84,0,0,1,2.79,2.42H82.73c0.27-1.08.54-3.15,0.81-4.81,0.11-.66.23-1.16,0.33-1.83-0.42-3-1.08-5.83-3.61-7.85-1.43.75-1.44-.25-2.22,1.17-0.17.32-1.8,1.87-2,2.15a13.87,13.87,0,0,1-5,5.45c-1.54.87-6.51,2.71-6.51,2.71H62.37c-2.51-.42-3.51-1.41-5.08-2.58-0.62-.46-3.08-1.57-3.49-2.23-0.61-1-6.2-5.91-5.82-7.21,0.34,0.09,9,5,9.33,4.93l3.06,0.16,3.23-.18h0c2.35-2-1.08-4.1.08-6.12h2l1.84-.36a20.81,20.81,0,0,0,2.73-2.29c0.75-.87,1.75-2,0.68-3.23a2.24,2.24,0,0,0-2.91,0c-5.8,3.95-9.12.86-11.76-4.86-1.08,2.27-1.6,4.9-3.11,6.18C52.21,85.22,51,85.52,49,85c-1.39-.3-2.21.73-3.23,1.32,0,0-4.43,1.78-5.55.58s-1-6.64-1.08-8.36l1.08-4.3,0.11-1.08c0.36-.73.26-2.15,1.08-2.15,3.07-.17,5.38-3.3,8.25-2.55,4.54-.94,7.08-1.82,11.75-3.06,4.2-1,6.86-2.66,11.55-2.15a23.59,23.59,0,0,1,2.32.51C76,64,77,64.5,78.1,64.79V64l-0.22-2-0.47-.09c-4.49-.77-7-3.4-6.64-6.14a6.46,6.46,0,0,1,.17-1.43c0.16-.48,6-7.16,6-7.16,0.77-1,1.47-2,2.15-3L65,19.65,40.25,62.45,15.4,105.25H45.27Z"/><path class="cls-1" d="M91.2,13H88.89V6.09H90V8.81h1.63l1.24-2.74h1.27l-1.43,3a1.88,1.88,0,0,1,.85.73,2.21,2.21,0,0,1,.27,1.08,2.27,2.27,0,0,1-.12.7,1.63,1.63,0,0,1-.41.66,2.15,2.15,0,0,1-.8.47A3.83,3.83,0,0,1,91.2,13Zm0.09-3.23H90V12h1.17a2.66,2.66,0,0,0,.7-0.08,1.19,1.19,0,0,0,.45-0.22,0.79,0.79,0,0,0,.24-0.33,1.27,1.27,0,0,0,.08-0.44,1.67,1.67,0,0,0-.06-0.47,0.84,0.84,0,0,0-.22-0.37,1,1,0,0,0-.41-0.24,2.22,2.22,0,0,0-.61,0v0Z"/><path class="cls-1" d="M86.73,12.87a5.51,5.51,0,0,1,7.71-7.71l0.77-.77a6.6,6.6,0,0,0-9.28,9.28Z"/><path class="cls-1" d="M96.28,5.43l-0.77.81a5.51,5.51,0,0,1-7.69,7.68L87,14.7A6.6,6.6,0,0,0,96.28,5.43Z"/></svg>