<?xml version="1.0" encoding="utf-8"?>
<!-- Generator: Adobe Illustrator 19.2.0, SVG Export Plug-In . SVG Version: 6.00 Build 0)  -->
<svg version="1.1" id="Layer_1" xmlns="http://www.w3.org/2000/svg" xmlns:xlink="http://www.w3.org/1999/xlink" x="0px" y="0px"
	 viewBox="0 0 130 120" style="enable-background:new 0 0 130 120;" xml:space="preserve">
<style type="text/css">
	.st0{fill:#202020;}
</style>
<title>footer-logo</title>
<path class="st0" d="M47.9,106.1c-1.4-0.7-5.7-8.6-5.7-8.6c1.2,3.7,1.7,7.5,1.5,11.4h7.2C50.2,107.7,49.2,106.8,47.9,106.1z"/>
<path class="st0" d="M128.8,113.1L66.5,5.1c-0.5-0.8-1.5-1.1-2.3-0.6c-0.2,0.1-0.4,0.3-0.6,0.6l-62.3,108C0.7,114,1,115,1.8,115.5
	c0.3,0.1,0.5,0.2,0.8,0.2h124.7c0.9,0,1.7-0.8,1.7-1.8C129,113.7,128.9,113.4,128.8,113.1z M84.9,103.5c-0.3,1.8-0.6,3.4-0.9,5.4
	H50.9c-0.7-1.2-1.8-2.1-3-2.7c-1.4-0.7-5.7-8.7-5.7-8.7c1.2,3.7,1.7,7.5,1.5,11.4h-32l26.6-46.2L65,16.5l15.1,26.2
	c-0.7,1.1-1.5,2.2-2.3,3.2c0,0-6.3,7.2-6.5,7.7c-0.1,0.5-0.2,1-0.2,1.5c-0.4,2.9,2.3,5.8,7.1,6.6l0.5,0.1l0.2,2.2
	c0,0.3,0,0.6,0.1,0.9c-1.2-0.3-2.3-0.9-3-1.2c-0.8-0.2-1.7-0.4-2.5-0.5c-5-0.5-7.9,1.2-12.4,2.3c-5,1.3-7.7,2.3-12.7,3.3
	c-3-0.8-5.6,2.6-8.9,2.7c-0.9,0-0.8,1.6-1.1,2.4L38.3,75l-1.1,4.7c0.1,1.9,0,7.7,1.2,9s6-0.6,6-0.6c1.1-0.6,1.9-1.7,3.5-1.4
	c2.1,0.6,3.4,0.3,4.4-0.6c1.6-1.4,2.2-4.2,3.3-6.6c2.9,6.2,6.4,9.5,12.7,5.2c0.9-0.8,2.2-0.7,3.1,0c1.1,1.3,0.1,2.5-0.7,3.4
	c-0.9,0.9-1.9,1.7-2.9,2.5L65.8,91h-2.3c-1.3,2.2,2.4,4.4-0.1,6.6l0,0l-3.5,0.2l-3.3-0.2c-0.4,0.1-9.7-5.2-10-5.3
	c-0.4,1.4,5.6,6.7,6.3,7.7c0.4,0.7,3.1,1.9,3.7,2.4c1.7,1.3,2.8,2.3,5.5,2.8c0.4,0.1,1.9,0,2.4,0c0,0,5.3-1.9,7-2.9
	c2.3-1.4,4.2-3.4,5.4-5.8c0.2-0.3,1.9-2,2.1-2.4c0.8-1.5,0.8-0.4,2.4-1.3c2.7,2.2,3.4,5.2,3.9,8.4C85.1,102,85,102.8,84.9,103.5
	L84.9,103.5z"/>
<path class="st0" d="M89.1,14.2h-2.2V7.7H88v2.6h1.5l1.2-2.6h1.2l-1.3,2.8c0.3,0.1,0.6,0.4,0.8,0.7c0.2,0.3,0.3,0.7,0.2,1.1
	c0,0.2,0,0.4-0.1,0.7c-0.1,0.2-0.2,0.4-0.4,0.6c-0.2,0.2-0.5,0.4-0.8,0.4C89.9,14.1,89.5,14.2,89.1,14.2z M89.2,11.2H88v2.1h1.1
	c0.2,0,0.4,0,0.7-0.1c0.2,0,0.3-0.1,0.4-0.2c0.1-0.1,0.2-0.2,0.2-0.3c0-0.1,0.1-0.3,0.1-0.4c0-0.2,0-0.3-0.1-0.4
	c0-0.1-0.1-0.2-0.2-0.3c-0.1-0.1-0.2-0.2-0.4-0.2C89.6,11.2,89.4,11.2,89.2,11.2z"/>
<path class="st0" d="M84.9,14c-1.7-2.3-1.2-5.5,1.1-7.2c1.8-1.3,4.3-1.3,6.1,0l0.7-0.7c-2.7-2.1-6.6-1.7-8.7,1
	c-1.8,2.3-1.8,5.5,0,7.7L84.9,14z"/>
<path class="st0" d="M93.9,7.1l-0.7,0.7c1.7,2.3,1.3,5.5-1,7.2c-1.8,1.4-4.4,1.4-6.3,0l-0.7,0.7c2.7,2.1,6.6,1.7,8.7-1
	C95.7,12.6,95.7,9.4,93.9,7.1z"/>
</svg>
