<svg id="Layer_1" data-name="Layer 1" xmlns="http://www.w3.org/2000/svg" viewBox="0 0 49.69 49.69"><defs><style>.cls-1{fill:#ff0000;}</style></defs><title>logo-green</title><polygon class="cls-1" points="20.15 21.93 33.3 35.07 33.3 26.62 28.6 21.93 20.15 21.93"/><polygon class="cls-1" points="33.3 12.54 32.36 13.48 19.21 13.48 18.27 12.54 13.58 12.54 10.76 15.35 10.76 20.05 11.7 20.99 11.7 29.44 10.76 30.38 10.76 35.07 18.27 42.58 18.27 20.05 33.3 20.05 40.81 12.54 33.3 12.54"/><path class="cls-1" d="M24.85,49.69A24.85,24.85,0,0,1,7.28,7.28,24.85,24.85,0,1,1,42.42,42.42a24.69,24.69,0,0,1-17.57,7.28h0Zm0-46.86A22,22,0,0,0,9.28,40.41,22,22,0,1,0,40.41,9.28,21.88,21.88,0,0,0,24.85,2.83h0Z"/></svg>