<svg id="Layer_1" data-name="Layer 1" xmlns="http://www.w3.org/2000/svg" viewBox="0 0 130 120"><defs><style>.cls-1{fill:#202020;}.cls-2{fill:#fff;}</style></defs><title>cadillac</title><rect class="cls-1" width="130" height="120"/><path class="cls-2" d="M44.64,52.3c-1.93-8.67.67-15.5,7.38-21a54.25,54.25,0,0,0-12.08,2,35.52,35.52,0,0,0-11.29,4.86A19.7,19.7,0,0,1,30,36.38a24.8,24.8,0,0,1,8.36-5.63c6.16-2.81,12.72-4.11,19.39-5a88.61,88.61,0,0,1,22.65.15c1.56,0.2,3.11.54,4.66,0.86,0.33,0.07.61,0.36,0.94,0.45A14.34,14.34,0,0,0,89.2,28c1.17,0,2.09,0,2.68,1.29a12.83,12.83,0,0,0,1.59,2.05,5.1,5.1,0,0,1,1.37,3c-2.71-1.82-5.26-1.09-7.8.14a1,1,0,0,1-.55.11c-1.6-.27-3.23-0.21-4.73-1.13a11.88,11.88,0,0,0-5.81-1.52l-0.22.26a3.7,3.7,0,0,1,.65.36A19.86,19.86,0,0,1,83,44.34a4.23,4.23,0,0,1,0,1.16c-0.18,2-.35,4-0.55,6-0.06.6-.19,1.19-0.3,1.81-1.25,0-2.39.09-3.14,1.08L81.46,55l-1.38,2.46c-1.54-2.22-3.34-4.13-3.51-7a8.76,8.76,0,0,0-2.16-4.89,6,6,0,0,1-1.42-4c0-2.73-1.47-4.8-3.56-6.45-0.3-.24-0.63-0.45-0.95-0.67a2.36,2.36,0,0,1-.19-4.1c0.63-.54.54-1.33-0.27-1.42a5,5,0,0,0-2.5.34A17.92,17.92,0,0,0,61,31.72a23.38,23.38,0,0,1-5,3.42,1.43,1.43,0,0,0-.69.89,6,6,0,0,1-2.09,3,8.42,8.42,0,0,0-2.65,5.43,8.07,8.07,0,0,1-3.84,6.38C46,51.3,45.43,51.75,44.64,52.3ZM56,27.86L56,28.17a65.69,65.69,0,0,1,20.24,1.65,39.19,39.19,0,0,1,8.26,2.65,3.59,3.59,0,0,0,2.86.17,6.66,6.66,0,0,1,4-.7c0.25,0,.5,0,0.8,0a10.23,10.23,0,0,1-1.24-1.72,1.07,1.07,0,0,0-1.43-.69,4.5,4.5,0,0,1-4.15-1,1.43,1.43,0,0,0-.69-0.3c-6.89-1.31-13.81-2.27-20.84-1.59C61.2,26.88,58.59,27.44,56,27.86Z" transform="translate(0 0)"/><path class="cls-2" d="M63.55,66h5.61s0.09-.12.14-0.12a2.61,2.61,0,0,1,1.42.1,8.74,8.74,0,0,1,1,1.86L72,65.63h2.6l0.49,2.69h0.2l0.49-2.86h1.83l-0.85,1.48,2.38-.66-0.39,30c-5.22.28-10.4,0-15.72-.18Zm2.79,3.51a10,10,0,0,1,.86,2.4c0.2,3.17.33,6.35,0.4,9.53,0,1.67-.09,3.34-0.14,5-0.06,2,.07,4-1.13,5.76a2.34,2.34,0,0,0-.18.45c-0.27.67-.15,1,0.68,1,1,0,2.06,0,3.09,0H77.2C77,93,76.84,92.48,76.71,92a6.62,6.62,0,0,1-.42-1.78,17.63,17.63,0,0,0-1.17-7.1,11.45,11.45,0,0,0-.92-1.56l-0.27.14c0,0.31.11,0.62,0.14,0.93a13.3,13.3,0,0,1-.46,6.29A1.82,1.82,0,0,1,72.33,90,2,2,0,0,1,71,88.86a7.86,7.86,0,0,1-.48-2.73c0-3.61,0-7.22,0-10.83a8.63,8.63,0,0,1,1.08-4.44,5.64,5.64,0,0,0,.35-1.07Z" transform="translate(0 0)"/><path class="cls-2" d="M81.47,65.63L83,65.89v1.78a6.08,6.08,0,0,1,.67-2.12A1.75,1.75,0,0,1,86,65.2v1.67h0.1a6.91,6.91,0,0,1,.06-1,2.66,2.66,0,0,1,.33-0.65,3.44,3.44,0,0,1,.26.7,7.5,7.5,0,0,1,0,1c0.52-.61-0.2-1.54.77-2.13v1.6l0.25,0c0.16-.49.68-0.94-0.21-1.65l1.66-.6v7.77h0.21V64.71l0.15,0,0.15,0.71c0.46-.45.62-1.4,1.61-0.9a1,1,0,0,0,.46,0c1.75-.15,1.75-0.15,1.76,1.62q0.12,14.6.24,29.2c0,0.31,0,.63,0,0.87-1.52.07-2.93,0.16-4.35,0.18-1,0-2-.09-3-0.11-0.41,0-.83.07-1.24,0.09l-3.12.13a18,18,0,0,0-2.15.07c-0.68.11-.89-0.14-0.88-0.75,0-1.55.07-3.09,0.09-4.64,0.09-7.51.17-15,.28-22.53,0-.91.17-1.81,0.28-2.81l-1.76.36c0.64-.75,1.19-1.62,2.37-1.37l0,0.27,0.52,1.53,0.41-.74,0.11,1.49,0.14-1.7ZM91.52,94.74a3.2,3.2,0,0,0,.26-3.2,3.81,3.81,0,0,1-.3-1.4c-0.07-1-.07-2.06-0.13-3.09a8.44,8.44,0,0,0-1.42-4.74,7.83,7.83,0,0,0-.85-0.85,1.75,1.75,0,0,0,0,1,11,11,0,0,1-.42,6.17,1.33,1.33,0,0,1-1.58,1.09,2.22,2.22,0,0,1-1.33-1.87c0-1.1.05-2.2,0-3.29,0-2,0-4.06-.07-6.09-0.12-2.77-.42-5.53,1.16-8.07,0.43-.69-0.07-1.09-0.75-0.91a5.53,5.53,0,0,1-3.66-.29,0.93,0.93,0,0,0-.86.15,1.55,1.55,0,0,0,.09.95,13.2,13.2,0,0,1,.68,2.49c0.2,3.73.33,7.47,0.43,11.2,0.07,2.85.08,5.71-1.66,8.22a4,4,0,0,0-.28,1.37h5.54c0.19,0.87-.27,1.79.42,2.44h0.34l0.24-2.29c0.9,0,1.79,0,2.69,0C90.85,93.67,91.5,93.69,91.52,94.74Z" transform="translate(0 0)"/><path class="cls-2" d="M19.82,65c0.75,0.49,2,.13,1.62,1.29,0.11-1.12,1-1.6,2.32-1.18a10.23,10.23,0,0,0,2.1.27,9.76,9.76,0,0,1,2,.31,7.75,7.75,0,0,1,.9-0.09c1.59,0,3.17.52,4.78,0a2.8,2.8,0,0,1,1.32.43V95.79c-1.61,0-3.17,0-4.72,0-1.06,0-2.12.1-3.19,0.13-0.8,0-1.6.06-2.4,0-1,0-2.08-.08-3.12-0.1a2.48,2.48,0,0,0-.83.12c-0.92.31-1,.24-1-0.78,0-2.64,0-5.28.05-7.92q0.08-10.53.15-21.07C19.83,65.88,19.82,65.53,19.82,65ZM31.52,92.85l0.19,2.07h0.45l0.12-2.1,2.23-.14a14.81,14.81,0,0,1-1-2.3C32.73,86.8,32,83.21,31.2,79.63a14,14,0,0,1,.54-9A8.11,8.11,0,0,0,32,68.5c-2,1.82-3.89,1.41-5.79.21a2.83,2.83,0,0,0,.25,2.36,3.19,3.19,0,0,1,.47,2c-0.18,1.75-.55,3.48-0.81,5a5.81,5.81,0,0,0-1.86,0c-1.61.65-2.19,3.54-1,4.86a1,1,0,0,0,.53.39,1.88,1.88,0,0,0,1.06-.13,1.13,1.13,0,0,0,.09-0.86c-0.13-.68,0-1,0.76-1.05a0.59,0.59,0,0,1,.12.2,11.64,11.64,0,0,1-2,5.84,0.49,0.49,0,0,1-.28.24,1.72,1.72,0,0,1-.75-0.36,3.09,3.09,0,0,1-.41-0.82,3.58,3.58,0,0,0-1,.61c-1.33,1.63-.85,5.46,1.33,6.28l0.13,1.75,0.33,0c0-.41.07-0.81,0.15-1.21a2.21,2.21,0,0,1,.28-0.83,9.25,9.25,0,0,0,1.29-1.75c0.62-1.68,1.07-3.43,1.58-5.15,0.13-.43.24-0.86,0.43-1.52L28,88.74l0.27,0,1.1-3,0.25,0.07c0.17,2.29.8,4.61-.89,6.84Zm-10-13.14,0.12,0V67.56H21.56V79.71Z" transform="translate(0 0)"/><path class="cls-2" d="M51.1,65.82a19.14,19.14,0,0,1,2.78,0,1.7,1.7,0,0,1,.75.93,5,5,0,0,1,.27,1.1c0-.08,0-0.17,0-0.26,0.12-2,.12-2,2.07-1.95,1.73,0,3.46.06,5.18,0.11a11,11,0,0,1,1.11.15L62.79,96.18l-4.59-.42c-0.1-.78-0.26-1.51.55-2A0.5,0.5,0,0,0,59,93.36c-0.2-1-.46-1.91-0.67-2.86a12.38,12.38,0,0,1-.3-1.78,57,57,0,0,1,.13-10.31,35,35,0,0,0,0-4.14A5.08,5.08,0,0,1,59,71.64a4.6,4.6,0,0,0,.45-2c-1.89,1-3.64,1.4-5.28-.22a1.36,1.36,0,0,0,.1,1.82,3.86,3.86,0,0,1,.7,2.54c0,3.35.05,6.69,0,10a4.07,4.07,0,0,1-.31,1.12c0.1,0.62.25,1.21,0.29,1.81,0.12,1.85.14,3.68-1.07,5.27a2.27,2.27,0,0,0-.31.91c-0.12.61,0.07,0.9,0.77,0.83a9.56,9.56,0,0,1,2.11,0c1.45,0.19,1.6.5,1.19,2-1.28.09-2.56,0.19-3.84,0.26a4.58,4.58,0,0,1-.73-0.15,6.5,6.5,0,0,0-1.68-.14c-0.73.11-.94-0.14-0.92-0.8,0.21-7.18.4-14.36,0.63-21.55a4.77,4.77,0,0,1,.49-1.63,3.66,3.66,0,0,0,.06-2.83A18,18,0,0,1,51.1,65.82ZM61.62,89l0.07,0V76.84H61.62V89Zm0.26-17.84h0v4.27h0V71.14Z" transform="translate(0 0)"/><path class="cls-2" d="M107,68.59c-2.87,1.46-3.91,1.4-6.09-.45a1.51,1.51,0,0,0-.12,1.93c1.17,1.8.88,3.69,0.51,5.61-0.16.82-.35,1.63-0.54,2.5a2.48,2.48,0,0,0-3,1.24,3.05,3.05,0,0,0-.25,3.38,2.17,2.17,0,0,0,1,.93,1.36,1.36,0,0,0,1.08-.35,1.81,1.81,0,0,0,0-.9,3.64,3.64,0,0,1,0-.87,0.8,0.8,0,0,1,.47-0.12,1.36,1.36,0,0,1,.21.78c-0.54,1.65-1.09,3.29-1.73,4.9a2.22,2.22,0,0,1-1,.56l-0.47-1.17a4.86,4.86,0,0,0-1.18.81c-1.29,1.59-1.37,5,.94,6.19,0.48,0.25.9,2.07,0.47,2.44a2.64,2.64,0,0,1-1.57.35A12.16,12.16,0,0,1,94,96.1c0-.23,0-0.57,0-0.91C94,85.32,93.9,75.46,93.79,65.6A1.14,1.14,0,0,1,95,64.26h0.1c2.34-.23,2.47-0.11,2.55,2.36l0.92-2.51c3.71,0.1,7.39.72,11.25,0.54a3.71,3.71,0,0,1,.11.69q0.3,15.08.58,30.16c0,1.07,0,1.11-1.06.67,0.22-1,.45-2.05.65-3.1a0.74,0.74,0,0,0-.13-0.54c-1.47-1.77-1.6-3.94-1.87-6.09s-0.75-4-1-6c-0.22-1.49-.25-3-0.41-4.51a23.9,23.9,0,0,1-.38-2.55,15.47,15.47,0,0,1,.42-2.53C106.78,70.11,106.91,69.35,107,68.59Zm1.4,9,0.06,0V68.62h-0.06v8.92Z" transform="translate(0 0)"/><path class="cls-2" d="M113.9,95.91c-1,.64-2,0.45-3.32.13,0-2.24,0-4.52,0-6.8-0.13-7.8-.29-15.59-0.42-23.39a1.18,1.18,0,0,1,.3-0.89,1.31,1.31,0,0,1,1.11-.19,1.81,1.81,0,0,1,.42.92L112,64.8c2.11,0.24,4.24-.14,6.33.56a1.45,1.45,0,0,1,2.25-.3A0.7,0.7,0,0,0,121.7,65a2,2,0,0,1,.92-0.18c0,0.25,0,.51,0,0.76,0,0.9-.07,1.81,0,2.7a17,17,0,0,1,0,4.91,5.74,5.74,0,0,0,.07,1.68c0.08,1.1.19,2.19,0.26,3.29,0,0.74.06,1.49,0,2.24,0,1-.11,1.91-0.06,2.86s0.27,2.08.33,3.12c0,0.84-.05,1.68-0.07,2.52,0,1.51,0,3-.1,4.54a3.05,3.05,0,0,1-1.14,2.6,2.42,2.42,0,0,1-1.16.35c-1.34,0-2.68,0-4,0-0.78,0-1.57,0-2.35-.05A1.14,1.14,0,0,1,113.9,95.91Zm7.69-27.36a2.12,2.12,0,0,1-2.6,0,3.21,3.21,0,0,0-3.64.21c-2.2,1.53-3.17,3.93-3.81,6.31a18.11,18.11,0,0,0-.25,7.87c0.38,2.13.25,4.37,1.37,6.37,1,1.83,2.26,3.42,4.36,4,0.85,0.23,1.73,1.23,2.66.32a7.92,7.92,0,0,0,1.82-2.32,10.57,10.57,0,0,0,.63-6.35,5.7,5.7,0,0,0-.33-0.89,3.11,3.11,0,0,0-.27,1,18.21,18.21,0,0,1-1.16,3.74c-0.92,1.71-2.63,1.78-3.9.33a5.67,5.67,0,0,1-.92-1.46,16.73,16.73,0,0,1-1.13-9.37,5,5,0,0,1,2.07-3.79,1.8,1.8,0,0,1,2.46.25,3.6,3.6,0,0,1-.61,4.4c-0.48.32-1.06,0.34-1.15-.27a4.61,4.61,0,0,1,.36-1.75,2.49,2.49,0,0,0,.34-0.84,1.36,1.36,0,0,0-.9-0.65,3.58,3.58,0,0,0-1.63,1.15,4.26,4.26,0,0,0-.17,3.82,2.81,2.81,0,0,0,4.41,1.36,5.6,5.6,0,0,0,1.87-2.47,17.21,17.21,0,0,0,.75-4.93A56.45,56.45,0,0,0,121.59,68.55Z" transform="translate(0 0)"/><path class="cls-2" d="M9.77,65.62V67.1c0.15-1.53.15-1.53,2.84-1.49l0.07,0.61c0.44-.37,1-1.24,1.48-1.19,1.19,0.13,2.52-.16,3.68.59L19.59,65c0,0.66,0,1,0,1.34Q19.49,80.66,19.4,95c0,1.15-.34,1.32-1.51,1A11.6,11.6,0,0,0,16,96a13.15,13.15,0,0,0-1.31-.16c-1.11,0-2.23.14-3.34,0.2a4,4,0,0,1-3.87-2,7,7,0,0,1-.8-2.71c-0.27-1.59.41-3,.24-4.56a17.46,17.46,0,0,1,.42-2.85,29.66,29.66,0,0,0-.08-3c0-.75-0.09-1.5-0.09-2.24,0-1,.1-2,0.11-3s0-2.24,0-3.36c0-.85.06-1.69,0.07-2.54,0-1.07.05-2.14,0-3.21,0-.56.07-0.88,0.68-0.88H9.77ZM18.24,83.8a1.2,1.2,0,0,0-.27.09c0,0.18-.09.37-0.13,0.56A9.12,9.12,0,0,1,16,89c-1.22,1.45-2.75,1.33-3.47-.44a17.61,17.61,0,0,1-.88-11.72,6.7,6.7,0,0,1,1.75-2.56,1.35,1.35,0,0,1,2.05.2,3.94,3.94,0,0,1-.15,4.34,1,1,0,0,1-.82.28A0.92,0.92,0,0,1,14,78.34a5.77,5.77,0,0,1,.42-1.07,2.4,2.4,0,0,0,.21-1.34,1,1,0,0,0-1.48-.42,2.24,2.24,0,0,0-.79,1,9.39,9.39,0,0,0-.41,1.67A3.53,3.53,0,0,0,14,82.15c1.48,0.46,2.9-.33,3.49-2.22,0.65-2.08,1.08-4.23,1.6-6.35a0.65,0.65,0,0,0,0-.27c-0.17-.7-0.35-1.4-0.5-2.1-0.2-.89-0.37-1.78-0.6-2.87a1.64,1.64,0,0,1-2.27.4,3.11,3.11,0,0,0-4.15.86,7.25,7.25,0,0,0-1.4,2.29,51.34,51.34,0,0,0-1.76,6.39,18.31,18.31,0,0,0,.17,3.55,19.82,19.82,0,0,0-.2,2.2c0.23,1.75.61,3.47,0.95,5.2a1.18,1.18,0,0,0,.27.48c0.34,0.42.68,0.84,1.06,1.23,0.67,0.68,1.39,1.31,2,2a2,2,0,0,1,.48,1,14.12,14.12,0,0,1,.12,1.69l0.51,0,0.58-2.17,2.51-.79-0.2,2.64,0.44,0.07c0.11-.56.23-1.11,0.33-1.67,0.18-1.06.36-2.13,0.5-3.2,0.23-1.75.48-3.49,0.63-5.25A5,5,0,0,0,18.24,83.8Z" transform="translate(0 0)"/><path class="cls-2" d="M49.94,72.62l0.54,0.79,0.08-1.15h0.26l-0.64,23c-1.42.54-3.93,0.56-4.18,0.27a8.18,8.18,0,0,1-1.85.32c-1.24-.09-2.55-0.65-3.69-0.39-1.66.37-3.39-.39-5.08,0.67V65.74c1.11,0.25,1.11.25,1.19,2.47a14.16,14.16,0,0,1,0-1.44,10.28,10.28,0,0,1,.28-1.25l0.29,0,0.23,1h0.12l0.14-.8c1.15,0.77.75,2.06,1.18,3-2.47,2.62-3.56,6.86-2.22,9.39a9.13,9.13,0,0,1,2.22-6.29L39.68,73c-1.51,1.21-1.79,3.06-2.46,4.71a0.82,0.82,0,0,0,0,.44A15,15,0,0,1,37.82,81c0,2.61-.1,5.22-0.17,7.82a3.59,3.59,0,0,1-1.93,3.34,0.8,0.8,0,0,0-.2.2,0.89,0.89,0,0,0,0,.24c2.15,0.68,4.42.33,6.71,0.6v1.8l0.25,0,0.4-2.25,0.41,0L43.4,95.2h0.39c0-.67.05-1.35,0.15-2a1.48,1.48,0,0,1,.42-0.95,7.08,7.08,0,0,0,3.06-4.86c0.75-4.21,1.1-8.43-.1-12.64a2.4,2.4,0,0,1,.38-2,9.2,9.2,0,0,0,.53-2.39,2.29,2.29,0,0,1,.47-0.66l0.25,0.55L49,68.73h0.15a8.82,8.82,0,0,1,.08,2.74,9.54,9.54,0,0,1-1.54,2.37l1.14,0.27,0.88-1.28,0.1,1.11H50q0-.68,0-1.36Z" transform="translate(0 0)"/><path class="cls-2" d="M67.26,59.34v0.72c0.57-.92,0-2.65,1.64-2.36l-0.31,3a0.56,0.56,0,0,1,0,.28c-0.73.78-1.45,1.56-2.22,2.3a8.2,8.2,0,0,1-1.27,1c-1.45.94-3.41,0-4.27-1.07-0.7-.85-1.48-1.63-2.21-2.46a1.17,1.17,0,0,1-.3-0.58C58.15,59,58,57.73,57.94,56.52c0.5,0.5,1,.91,1.36,1.38a1.5,1.5,0,0,1,.08.7l1.57,2.89c0.07-.92.15-1.59,0.15-2.25a1.24,1.24,0,0,0-.31-0.66,0.46,0.46,0,0,0-.4.06c-0.41,1-.71.25-1-0.06a3.47,3.47,0,0,0,.49-0.89c0.09-.4,0-0.83.1-1.26L60,56.81h0.16V55L60.48,55l0.4,0.83H61l-0.21-1.32,1-.41A2.09,2.09,0,0,0,61,53.86c-0.92.48-1.82,1-2.74,1.48a0.9,0.9,0,0,1-.65.14A13.38,13.38,0,0,1,55.07,53c-0.32-.49.08-1.48,0.23-2.22a14.49,14.49,0,0,1,.51-1.62v0A0.1,0.1,0,0,1,55.87,49h0c0.91-.3,1.71-2.33,1.14-3a2.57,2.57,0,0,0-1.07-.43,1.29,1.29,0,0,1,.35-1.63,1.41,1.41,0,0,1,1.74.39c1.14,0.9,1.76.79,2.66-.35,0.27-.34.68-0.58,1-0.9a9,9,0,0,0,.66-0.88l4.28,1.14-0.38,1c0.69-.42.86,0.08,1,0.5a1.11,1.11,0,0,1-.19.48l3.82,4.29-0.17.21c-0.71-.52-1.44-1-2.11-1.58a2.45,2.45,0,0,0-3.08.67,9.53,9.53,0,0,1,1.14-.44,2.81,2.81,0,0,1,1.21,0c-1.71,0-2,1.11-1.82,2.74L65.2,49.67c-0.11.71-.19,1.23-0.27,1.76-0.17,1.15-.51,1.37-1.65,1.08-0.28.35-.53,0.72-0.84,1-1.17,1.23-.88,2.53.75,3.13l0.73-.76L64.58,57a2.31,2.31,0,0,0,1.17-2.64,8.39,8.39,0,0,1-.56-1.53A5,5,0,0,1,65.33,51,3.72,3.72,0,0,0,69,53.29c1.21-.08,1.55-0.59,2.12-3.14a13,13,0,0,1,1,1.87A2,2,0,0,1,72,53.34a4,4,0,0,1-2.39,2.33c-0.19-1.63-1.82-1-2.56-2l-0.92,2.52,0.2,0.08,0.35-.67,0.13,0.72,0.43-.47c0,1.16,0,2.32,0,3.48a0.8,0.8,0,0,0-.4-0.14c-0.45.29-.85,0.65-1.32,0.9a0.65,0.65,0,0,1-.6-0.21,10.54,10.54,0,0,1-.35-1.34l-0.86.4L63.6,57.6l-0.16,1.45-1.18-.36-0.94,1.94,0.94,1.2,0.35-.34-0.83-.16A0.92,0.92,0,0,1,62.27,61a4.63,4.63,0,0,0,3.14-.16,2.14,2.14,0,0,1,1,0ZM59.62,48.21a9.16,9.16,0,0,1-1.49.55C57,49,56.64,49.48,57,50.57c0.16,0.55.26,1.13,0.37,1.69a1.23,1.23,0,0,0,1.38,1.17,10.7,10.7,0,0,0,1.4-.28l2.84-.64,0.23-2.33a4.1,4.1,0,0,1-.8-0.37A6.52,6.52,0,0,0,61.48,49a17.64,17.64,0,0,0-1.88-.77,3.81,3.81,0,0,1,3.45,1.3A2.24,2.24,0,0,0,59.62,48.21Z" transform="translate(0 0)"/><path class="cls-2" d="M80.33,65l0-.27C80.1,64,80.73,64.11,81.1,64c0.71-.17,1.46-0.21,2.16-0.39A10.46,10.46,0,0,0,84.77,63a2.34,2.34,0,0,0-2.13-.65,16.52,16.52,0,0,0-5.18.85,7.36,7.36,0,0,1-2.27,0,8.44,8.44,0,0,1,1.39-1,32.79,32.79,0,0,1,4.33-1.62,6.12,6.12,0,0,1,2.81.05c0.64,0.15,1-.35,1.52-0.29a1.46,1.46,0,0,0-.05-0.77,2.76,2.76,0,0,0-3.06.19l-7.69.31c0.24-.7,1.46-1.4,2.76-1.53a10.52,10.52,0,0,0,1.65-.36A9.18,9.18,0,0,1,82.51,58c1.17,0.16,2.58.31,3.47-.89a1.84,1.84,0,0,0,.11-1.22,1,1,0,0,0-.61-0.43c-1.58-.57-3.38-0.26-4.87-1.21a0.72,0.72,0,0,1-.31-0.44,11.34,11.34,0,0,1,1.43-.1A26,26,0,0,1,84.6,54a6.93,6.93,0,0,1,2.1.61c1.11,0.58,1.13.81,0.61,1.94a2.21,2.21,0,0,0,.28,1.86,4.41,4.41,0,0,1,.24,1.51l0.78,0.75-0.1.14-1.14-.37-0.32,1.94,0,0a1.21,1.21,0,0,0,.1.49c0.3,0.39.9,0.78,0.46,1.28a3.6,3.6,0,0,1-1.4.58l0.69-1.44-0.29-.18a2,2,0,0,1-2,1.69,14.75,14.75,0,0,0-3.16.86l0,0Z" transform="translate(0 0)"/><path class="cls-2" d="M48.81,66.18l-1.36.8,0.46,4.43c0.06,0.54,0,1-.7,1s-0.81-.45-0.76-1a3.48,3.48,0,0,0-1.12-3,9.79,9.79,0,0,0-.17,1.48c0,0.74.18,1.47,0.21,2.21a1.12,1.12,0,0,1-1.09,1.31,0.69,0.69,0,0,1-.85-0.85,23.91,23.91,0,0,0,0-2.46H43.22l-0.58,3.48,0,0A3.4,3.4,0,0,1,39,71.05a0.57,0.57,0,0,1,.12-0.5,8.52,8.52,0,0,1,.76.89c0.15,0.23.1,0.66,0.6,0.42a7.26,7.26,0,0,1,.54.82c0.36,0.12.58-.09,0.63-0.73a4.5,4.5,0,0,0-1-3.11c-0.57-.79-1-1.65-1.54-2.48,0,0,0-.06,0-0.09a15.73,15.73,0,0,1-.89-1.38c1-.77,1.35-2.19,2.71-2.52a2.27,2.27,0,0,0,.68-0.28,1.77,1.77,0,0,1,2.37.17c1.34,1,2.76,1.89,4.11,2.89a3.94,3.94,0,0,1,.72,1.06ZM41.35,64a6.46,6.46,0,0,0,3.11,3.36C44.45,65.78,42.5,63.73,41.35,64Zm-1.62.51c0.22,1.83,1.68,3.59,3,3.38-0.81-1.19-1.54-2.29-2.32-3.37A1.44,1.44,0,0,0,39.73,64.55Zm3.69-1.2A3,3,0,0,0,46,65.67,2.6,2.6,0,0,0,43.42,63.35Z" transform="translate(0 0)"/><path class="cls-2" d="M104,93.24l2.55,0.3,0.1,1.46h0.32l0.21-1.52,0.34,0.37,1.8-.56-0.23,2.94h-1.61a1.12,1.12,0,0,0-.47,0c-1.08.65-2.23,0-3.35,0.21a14.77,14.77,0,0,1-2.91-.1,12.6,12.6,0,0,0-1.77,0c-0.63.07-1,0-1-.78A2.78,2.78,0,0,1,98.88,93a5.6,5.6,0,0,0,1.34-2.6c0.55-1.67,1-3.39,1.44-5.16l1.44,3.81,0.33,0,1.15-2.87C105.17,88.57,105.55,90.85,104,93.24Z" transform="translate(0 0)"/><path class="cls-2" d="M42.64,73.56l0.55-.45a5.21,5.21,0,0,0,.1.66,21.64,21.64,0,0,1,1.28,4.51,37.39,37.39,0,0,1-.32,6.82C44,87.07,42.93,87.87,41,88a3.54,3.54,0,0,1-.08-0.54c0-3.41,0-6.82.06-10.23a18,18,0,0,1,.62-3.1l0.36,0.06v1.29l0.75-1.9Z" transform="translate(0 0)"/><path class="cls-2" d="M84.37,40c0.79,0.26,1.61.29,1.88,0.69a3.55,3.55,0,0,1,0,1.78c0,0.19,0,.39,0,0.58,0,1.2-.07,1.22-1.31,1.09a5.85,5.85,0,0,1-1.05,0,1,1,0,0,1-.63-0.55,1.09,1.09,0,0,1,.61-0.71c0.41-.1.87,0,1.34-0.12l-1.81-.22c-0.24-1.09-.2-1.15,1-1.18l-0.64-.39c0.37,0,.61,0,0.84,0a1,1,0,0,0,.74-0.11l-2-.23,0.09-1.13h1.51l0-.18-1.43-.16c-0.26-.71,0-1,0.75-0.88a8.31,8.31,0,0,0,2.08.16l-2.92-.58,0.07-.42,2,0.13,0-.13-2-.36-0.06-1.12,1.35-.06,0-.11-1.39-.2,0-.25h1.33l0-.19-1.46-.28V34.71h4.38c0,0.71,0,.71-1.27.8l0.88,0.22v0.19l-1.48-.1,0,0.11,1.4,0.36,0,0.34-2.34-.33,0,0.15L87.05,37l-0.51,2.08L85.61,39l0.84,0.83-1.3.13C85,40,84.77,40,84.37,40Z" transform="translate(0 0)"/><path class="cls-2" d="M42.47,58.81l-1.83-.33c2-1.22,2.73-3,3.62-4.69a7.65,7.65,0,0,1,2.25-2.17c1.31-1,2.7-1.93,3.39-3.49a11.46,11.46,0,0,0,1-3.2,9.1,9.1,0,0,1,2.49-5.41,14.82,14.82,0,0,0,1.86-2.65,4.11,4.11,0,0,1,2.22-2,18,18,0,0,0,2-.94c-1,1.57-3.19,1.55-3.8,3.35-0.53,1.56-2.43,2.29-2.52,4.21l3.82-3.41,0.13,0c-0.51.74-1,1.5-1.55,2.2a16.28,16.28,0,0,0-1.69,1.84A18.75,18.75,0,0,0,52.71,45l-0.16-2.66-0.22-.09c-0.27.85-.56,1.7-0.81,2.56a19.33,19.33,0,0,1-1,3.5,6.67,6.67,0,0,1-2.31,2.87C45.13,52.88,43.76,55.71,42.47,58.81Z" transform="translate(0 0)"/><path class="cls-2" d="M106.63,52c1.26,2.41,2.18,4.86,1.72,7.59a2.27,2.27,0,0,1-.11.37c-0.27.76-.63,1.48-1.58,1.43a1.57,1.57,0,0,1-1.49-1.53,10.73,10.73,0,0,1,.05-3.25C105.56,55,106.15,53.52,106.63,52Z" transform="translate(0 0)"/><path class="cls-2" d="M98.65,40.21a17.21,17.21,0,0,1,1.29,6.69c-0.07,1.4-.54,2.16-1.41,2.21a2.09,2.09,0,0,1-2-2,7.38,7.38,0,0,1,.21-2.76c0.42-1.46,1.06-2.85,1.6-4.28Z" transform="translate(0 0)"/><path class="cls-2" d="M115.93,37.34c1.57,1.93,1.65,4,1.46,6.16A3.07,3.07,0,0,1,117,45a2,2,0,0,1-1.42.85,1.89,1.89,0,0,1-1.36-1.07,5.19,5.19,0,0,1,.07-2.54C114.7,40.65,115.33,39.07,115.93,37.34Z" transform="translate(0 0)"/><path class="cls-2" d="M34.28,38.8c0.38,2.06.85,4.11,1.12,6.18a1.74,1.74,0,0,1-1.32,2.15,1.83,1.83,0,0,1-1.79-2,9.91,9.91,0,0,1,.34-2.94c0.31-1.16.82-2.27,1.25-3.4h0.42Z" transform="translate(0 0)"/><path class="cls-2" d="M107.63,26.74c1.14,2,1.88,3.91,1.39,6.06-0.26,1.14-1,1.75-1.81,1.64a1.76,1.76,0,0,1-1.39-1.93C105.78,30.44,106.68,28.68,107.63,26.74Z" transform="translate(0 0)"/><path class="cls-2" d="M15.51,53.9c0.35,2,.8,3.94,1,5.94,0.15,1.29-.46,2.09-1.29,2.14s-1.54-.76-1.67-2a10.89,10.89,0,0,1,1.53-6Z" transform="translate(0 0)"/><path class="cls-2" d="M59.64,62.37C57.55,64.23,55,64,52.52,64.13c0,0,0,0-.07-0.06-1-1.57-.78-2,1.1-2.3,1.41-.23,2.8-0.65,4.21-0.8C58.67,60.88,59.1,61.73,59.64,62.37Z" transform="translate(0 0)"/><path class="cls-2" d="M23.52,29.21c0.33,1.72.69,3.43,1,5.16a2.2,2.2,0,0,1-.29,1.39,1.66,1.66,0,0,1-1.09.76,1.49,1.49,0,0,1-1.16-.64,3.58,3.58,0,0,1-.36-1.75,11.55,11.55,0,0,1,1.55-4.91h0.4Z" transform="translate(0 0)"/><path class="cls-2" d="M51,59.37c0.11-.62.19-1.22,0.35-1.8a0.69,0.69,0,0,1,.51-0.39,23.1,23.1,0,0,1,2.65,0c0.89,0.06,1.77.23,2.75,0.37l0.56,1.83H51Z" transform="translate(0 0)"/><path class="cls-2" d="M13,42.75l-0.47-.83-0.21.16,0.53,1.16-0.12.1-0.65-.69-0.1,0L12.5,44l-0.12.12-1.12-1.24-0.1.05,1,2C11.28,44.5,11.24,44.46,10,42c0,0.55.05,0.86,0.09,1.17s0.09,0.62.14,1A0.64,0.64,0,0,1,10,44a19.12,19.12,0,0,1-1-2.73,1.52,1.52,0,0,1,.48-1.35,2.71,2.71,0,0,1,1.81.1,4,4,0,0,1,1.52,1.22,3.82,3.82,0,0,1,.39,1.37Z" transform="translate(0 0)"/><path class="cls-2" d="M84,49.16a3.34,3.34,0,0,1,1,3,0.65,0.65,0,0,0,.06.32c0.2,0.6.2,1.07-.64,1.05-0.6,0-1.2,0-1.87,0,0-.55.08-1,0.12-1.55,0.08-1,.13-1.94.26-2.9a3.18,3.18,0,0,1,.4-0.87Z" transform="translate(0 0)"/><path class="cls-2" d="M87.9,56.57l8.48,7.21c-1.73.12-2-1.87-3.48-2.23L92.79,64l-0.28,0c-0.37-1.84-.56-3.79-2.72-4.95l0.55,1.79L90.15,61l-2.39-4.32Z" transform="translate(0 0)"/><path class="cls-2" d="M26,27.09l-1.28-.41,0.85,0.72,0,0.08-1.9-.84-0.15.19,0.69,0.28L24,27.29c-0.49-.22-1.59.46-1.3-0.72A1.89,1.89,0,0,1,22,26.08a1.86,1.86,0,0,1,.34-1.22,5.57,5.57,0,0,1,3.77.09l-1.5.08v0.1L26,25.5l-0.81.82L26,27Z" transform="translate(0 0)"/><path class="cls-2" d="M48.81,66.18l0,0L50.59,68c1.4,1.38,1.25,1.5.41,3-0.3.56-.71,1.06-1.07,1.58l0,0-1.13.59,1.57-3-2.1-3.31Z" transform="translate(0 0)"/><path class="cls-2" d="M84,49.16l-0.69-.9c0-1.26,0-2.53,0-3.83h1.57l-0.15.93-0.2-.59a0.88,0.88,0,0,0-.07,1.51c0.52,0.46,1.33.85,0.8,1.9l-1.1-1.41L83.94,47c0.47,1.08,2,1.76,1.24,3.31Z" transform="translate(0 0)"/><path class="cls-2" d="M56.23,56.39l-4-1.07,0.3-1.72C55.12,53.66,56.52,54.65,56.23,56.39Z" transform="translate(0 0)"/><path class="cls-2" d="M51.39,52.31c-2.07,2.81-4.08,5.65-4.45,9.3A1.16,1.16,0,0,1,46.36,60a16.54,16.54,0,0,1,2.93-5.62c0.62-.74,1.25-1.47,1.88-2.2Z" transform="translate(0 0)"/><path class="cls-2" d="M36.94,59.58a11.25,11.25,0,0,0-5.82,4.13c-0.31.41-.57,0.86-0.9,1.25a4.16,4.16,0,0,1-.87.55C30.06,62.56,33.64,59.85,36.94,59.58Z" transform="translate(0 0)"/><path class="cls-2" d="M103.29,77.41c0.23,1.89,1.68,3.75.22,5.76C102.6,81.89,102.52,80.41,103.29,77.41Z" transform="translate(0 0)"/><path class="cls-2" d="M69.34,58.6L72,59.91a2.94,2.94,0,0,1-.67,1.44,2.53,2.53,0,0,1-1.52-.53C68.78,60.29,69,59.46,69.34,58.6Z" transform="translate(0 0)"/><path class="cls-2" d="M67,23.69c-1.3.73-2.15,0.36-2.87-1.18C65.32,21.56,66.35,22,67,23.69Z" transform="translate(0 0)"/><path class="cls-2" d="M7.48,35.75A2.21,2.21,0,0,1,6,38.69a0.88,0.88,0,0,1-.54-0.55,5.34,5.34,0,0,1,.81-1.44A7.41,7.41,0,0,1,7.48,35.75Z" transform="translate(0 0)"/><path class="cls-2" d="M5.56,48C4.68,47,5.45,46,7,45.13,7.88,46.09,7.35,47.18,5.56,48Z" transform="translate(0 0)"/><path class="cls-2" d="M32.25,22.11c1.28-.47,1.9-0.2,3.1,1.32C34.36,24.35,33.29,23.91,32.25,22.11Z" transform="translate(0 0)"/><path class="cls-2" d="M7.19,42.66c0.72,1,.26,2-1.41,2.86C5,44.55,5.27,44,7.19,42.66Z" transform="translate(0 0)"/><path class="cls-2" d="M72.91,44.33C70.79,42.88,70,41,71.13,39.9Z" transform="translate(0 0)"/><path class="cls-2" d="M7.13,52c0.75,1,.43,1.65-1.37,2.79C4.78,53.88,5.12,53.2,7.13,52Z" transform="translate(0 0)"/><path class="cls-2" d="M34.7,22.17c1-.87,2-0.54,3.14,1C36.82,24,35.95,23.68,34.7,22.17Z" transform="translate(0 0)"/><path class="cls-2" d="M74.54,51.31c1.2,1.07,1.32,4.16,0,6v-6Z" transform="translate(0 0)"/><path class="cls-2" d="M43.61,60.09c-2.21-.06-4.47-1.37-6.56.44A4.94,4.94,0,0,1,43.61,60.09Z" transform="translate(0 0)"/><path class="cls-2" d="M7.35,60c0.29,1.43-.28,2.35-2,3.24C4.85,62,6,60.8,7.35,60Z" transform="translate(0 0)"/><path class="cls-2" d="M7.25,47.39c0.46,1.68-.79,2.29-1.65,3.13C4.78,49.39,5.15,48.66,7.25,47.39Z" transform="translate(0 0)"/><path class="cls-2" d="M16.95,97.82c-1.64.51-2.41-.55-3.27-1.49C14.72,95.66,16,96.24,16.95,97.82Z" transform="translate(0 0)"/><path class="cls-2" d="M5.11,76c-0.48-1.81,1-2.41,1.82-3.39C7.53,73.62,6.87,74.86,5.11,76Z" transform="translate(0 0)"/><path class="cls-2" d="M48.48,23.57c-1.3.77-1.82,0.51-2.7-1.29C46.9,21.61,47.69,22,48.48,23.57Z" transform="translate(0 0)"/><path class="cls-2" d="M69,22.27c1.24-.6,2.32-0.1,3.07,1.43C70.85,24.18,69.78,23.69,69,22.27Z" transform="translate(0 0)"/><path class="cls-2" d="M12.26,24.19c0.8-1.43,2-1.31,3.26.3C14.34,25.19,13.33,24.51,12.26,24.19Z" transform="translate(0 0)"/><path class="cls-2" d="M5.46,52.62c-0.29-1.21.23-2.07,1.8-3C7.86,50.64,7.25,51.69,5.46,52.62Z" transform="translate(0 0)"/><path class="cls-2" d="M14.39,97.66c-1,.83-2.1.29-2.8-1.35C12.51,95.84,13.58,96.35,14.39,97.66Z" transform="translate(0 0)"/><path class="cls-2" d="M52.4,97.66c-1.6.45-2.37-.51-3.1-1.58C50.25,95.47,51.56,96.12,52.4,97.66Z" transform="translate(0 0)"/><path class="cls-2" d="M7.37,38.22C8,39.28,7.49,40.14,5.74,41,5.09,40,5.59,39.17,7.37,38.22Z" transform="translate(0 0)"/><path class="cls-2" d="M46.14,97.76L44.9,96.34C46.06,95.64,47,96.08,48,98l-1.95-.22Z" transform="translate(0 0)"/><path class="cls-2" d="M71.5,22.31c1.13-.59,2-0.15,2.88,1.42C73.4,24.35,72.8,24.07,71.5,22.31Z" transform="translate(0 0)"/><path class="cls-2" d="M83.12,55.28l0.1,1.51,0.89-.54a4.15,4.15,0,0,1,.33,1,0.63,0.63,0,0,1-.35.5c-0.61,0-1.22,0-1.83-.08C82.05,55.8,82.23,55.3,83.12,55.28Z" transform="translate(0 0)"/><path class="cls-2" d="M5.18,67.6c-0.57-1.85,1-2.27,1.84-3.14C7.51,65.59,7.17,66.17,5.18,67.6Z" transform="translate(0 0)"/><path class="cls-2" d="M73.73,22.19c1.13-.52,1.87-0.14,2.73,1.34C75.39,24.66,74.82,23.83,73.73,22.19Z" transform="translate(0 0)"/><path class="cls-2" d="M25.42,22.18c1.24-.58,2-0.19,2.79,1.32C27.23,24.16,26.49,23.82,25.42,22.18Z" transform="translate(0 0)"/><path class="cls-2" d="M5.72,43.17c-0.55-1-.13-1.78,1.54-2.7C7.87,41.48,7.25,42.56,5.72,43.17Z" transform="translate(0 0)"/><path class="cls-2" d="M59.24,97.62c-1.21.84-2.16,0-3.05-1.4C57.18,95.77,58.19,96.22,59.24,97.62Z" transform="translate(0 0)"/><path class="cls-2" d="M66.81,22.37c1.09-.46,1.81-0.11,2.64,1.23C68.28,24.5,67.45,24.13,66.81,22.37Z" transform="translate(0 0)"/><path class="cls-2" d="M19.14,97.89c-1.48.36-2.2-.63-2.95-1.61A2.19,2.19,0,0,1,19.14,97.89Z" transform="translate(0 0)"/><path class="cls-2" d="M5.28,79.77c-0.83-1.18.16-1.83,1.62-2.85C7.25,78.12,6.68,79.11,5.28,79.77Z" transform="translate(0 0)"/><path class="cls-2" d="M46.95,54.08l-3.11,5.34c0.18,0,.08,0,0,0a4.56,4.56,0,0,1-.39-0.25A11.12,11.12,0,0,1,46.95,54.08Z" transform="translate(0 0)"/><path class="cls-2" d="M5.36,69.55C4.89,68.38,5.11,68,6.92,66.66,7.5,67.64,7.11,68.37,5.36,69.55Z" transform="translate(0 0)"/><path class="cls-2" d="M39.52,21.94c1.56-.21,2.13.93,2.91,1.77C41.4,24.47,40.81,24.11,39.52,21.94Z" transform="translate(0 0)"/><path class="cls-2" d="M54.94,23.74c-1.19.39-1.74,0.07-2.63-1.53C53.43,21.58,54.25,22.06,54.94,23.74Z" transform="translate(0 0)"/><path class="cls-2" d="M6.91,80.74a2.2,2.2,0,0,1-1.12,2.8,2,2,0,0,1-.68.06,1.38,1.38,0,0,1,0-.71C5.62,82.19,6.22,81.54,6.91,80.74Z" transform="translate(0 0)"/><path class="cls-2" d="M5.54,59c-0.51-1-.2-1.54,1.56-2.8C7.68,57.13,7.16,58.05,5.54,59Z" transform="translate(0 0)"/><path class="cls-2" d="M54.62,22.22a1.79,1.79,0,0,1,2.29.92,0.78,0.78,0,0,1,.1.59,1,1,0,0,1-.66.26C55.57,24,55.11,23.47,54.62,22.22Z" transform="translate(0 0)"/><path class="cls-2" d="M59.88,97.77L58.3,96.32c1.11-.56,2.5,0,3.35,1.51l-1.81-.09Z" transform="translate(0 0)"/><path class="cls-2" d="M56.81,22.29c1.16-.6,1.88-0.22,2.58,1.27C58.35,24.28,57.71,24,56.81,22.29Z" transform="translate(0 0)"/><path class="cls-2" d="M88.89,22.16a1.67,1.67,0,0,1,2.49,1.13,1,1,0,0,1-.78.48A2.1,2.1,0,0,1,88.89,22.16Z" transform="translate(0 0)"/><path class="cls-2" d="M123.51,86.12c-0.79-1,0-1.95,1.45-2.67C125.44,84.51,125,85.25,123.51,86.12Z" transform="translate(0 0)"/><path class="cls-2" d="M89.08,23.43c-1.14.54-1.71,0.21-2.52-1.39C87.69,21.43,88.5,21.85,89.08,23.43Z" transform="translate(0 0)"/><path class="cls-2" d="M59.08,22.27c1.08-.49,2,0,2.69,1.2C60.57,24.11,59.89,23.81,59.08,22.27Z" transform="translate(0 0)"/><path class="cls-2" d="M7.19,62.23c0.26,1.39-.32,2.29-1.91,3.06C5,63.71,6.23,63.13,7.19,62.23Z" transform="translate(0 0)"/><path class="cls-2" d="M7.34,54c0.24,1.21-.11,1.79-1.66,2.85C5,55.9,5.32,55.32,7.34,54Z" transform="translate(0 0)"/><path class="cls-2" d="M123.4,84c-0.4-1.3.1-2.1,1.55-2.59C125.47,82.42,125,83.15,123.4,84Z" transform="translate(0 0)"/><path class="cls-2" d="M91.15,22.16c1.22-.56,2-0.17,2.56,1.27C92.72,24,91.88,23.65,91.15,22.16Z" transform="translate(0 0)"/><path class="cls-2" d="M21.82,23.66c-1,.66-1.42.47-2.84-1.13C19.9,21.91,20.92,22.32,21.82,23.66Z" transform="translate(0 0)"/><path class="cls-2" d="M30,22.2c1.33-.34,1.89-0.06,2.82,1.38C31.83,24.2,30.83,23.73,30,22.2Z" transform="translate(0 0)"/><path class="cls-2" d="M22.8,96.27c1.31-.39,2.06,0,2.67,1.32C24.61,98.46,23.73,97.85,22.8,96.27Z" transform="translate(0 0)"/><path class="cls-2" d="M83,97.86c-0.92.55-1.87,0.21-2.86-1A1.9,1.9,0,0,1,83,97.86Z" transform="translate(0 0)"/><path class="cls-2" d="M61.53,22.4a2,2,0,0,1,2.75,1.32C63.12,24.16,62.45,23.84,61.53,22.4Z" transform="translate(0 0)"/><path class="cls-2" d="M60.29,63.57l1.1,0.92c-0.81,1-1.26,1.12-3,.82Z" transform="translate(0 0)"/><path class="cls-2" d="M37.4,22c1.43-.26,2.25.27,2.78,1.74C39.07,24,38.33,23.53,37.4,22Z" transform="translate(0 0)"/><path class="cls-2" d="M17.69,23.89c-1,.83-1.72.65-2.79-0.65C15.76,22.41,16.43,22.56,17.69,23.89Z" transform="translate(0 0)"/><path class="cls-2" d="M86.91,23.38c-1.09.44-1.92,0-2.57-1.22C85.32,21.44,86.18,21.85,86.91,23.38Z" transform="translate(0 0)"/><path class="cls-2" d="M78,22.45a1.65,1.65,0,0,1,2.5.92,0.59,0.59,0,0,1-.14.48,1.45,1.45,0,0,1-1,0A12.46,12.46,0,0,1,78,22.45Z" transform="translate(0 0)"/><path class="cls-2" d="M51.46,95.88a3.37,3.37,0,0,1,3.1,1.61C53.51,98.12,52.94,97.83,51.46,95.88Z" transform="translate(0 0)"/><path class="cls-2" d="M8,26.82c0.18-1.53.72-1.82,2.81-1.59C10.28,26.5,9.17,26.62,8,26.82Z" transform="translate(0 0)"/><path class="cls-2" d="M38.1,96c1.13-.37,1.94,0,2.81,1.29C39.82,97.77,38.91,97.35,38.1,96Z" transform="translate(0 0)"/><path class="cls-2" d="M50,97.69c-1.42.36-2.19-.46-2.83-1.54,1.16-.52,2.26.12,2.8,1.57Z" transform="translate(0 0)"/><path class="cls-2" d="M5.34,81.86c-0.66-1-.53-1.29,1.52-2.82C7.24,80,6.87,80.72,5.34,81.86Z" transform="translate(0 0)"/><path class="cls-2" d="M34.37,97.37c-1.09.73-1.9,0.42-2.9-1A2.39,2.39,0,0,1,34.37,97.37Z" transform="translate(0 0)"/><path class="cls-2" d="M100.5,23.45c-1.22.71-2.56,0.1-2.53-.93A1.19,1.19,0,0,1,98.91,22,11.16,11.16,0,0,1,100.5,23.45Z" transform="translate(0 0)"/><path class="cls-2" d="M6.76,85.15C7,86.3,6.6,86.92,5.16,87.71,4.53,86.77,5,86,6.76,85.15Z" transform="translate(0 0)"/><path class="cls-2" d="M50.29,22.25c1.23-.32,1.71,0,2.42,1.31C51.66,24.23,50.89,23.83,50.29,22.25Z" transform="translate(0 0)"/><path class="cls-2" d="M5,78c-0.26-1.19.29-2,2-3C7.14,76.5,6.1,77.19,5,78Z" transform="translate(0 0)"/><path class="cls-2" d="M98,23.45c-1.14.59-1.88,0.19-2.4-1.24C96.65,21.68,97.3,22,98,23.45Z" transform="translate(0 0)"/><path class="cls-2" d="M83,21.58A14.65,14.65,0,0,1,84.48,23c0.26,0.34-.33.93-0.77,0.69a5.92,5.92,0,0,1-1.41-1.33A8.08,8.08,0,0,1,83,21.58Z" transform="translate(0 0)"/><path class="cls-2" d="M43.82,97.77l-1.16-1.51c1.17-.47,2-0.08,2.71,1.4l-1.59.07Z" transform="translate(0 0)"/><path class="cls-2" d="M5.31,73.58c-0.53-1.64.84-2.1,1.57-3C7.32,71.69,6.81,72.65,5.31,73.58Z" transform="translate(0 0)"/><path class="cls-2" d="M41.33,22c1.42-.5,2.39.13,2.67,1.63C42.61,23.95,42.15,22.8,41.33,22Z" transform="translate(0 0)"/><path class="cls-2" d="M30.36,23.49c-1.15.5-1.84,0.1-2.6-1.44C28.81,21.67,29.69,22.14,30.36,23.49Z" transform="translate(0 0)"/><path class="cls-2" d="M105.41,24.08c-1.48,0-1.71-1.31-2.59-1.89C104,21.4,104.2,21.56,105.41,24.08Z" transform="translate(0 0)"/><path class="cls-2" d="M125,89.35c0.73,1.15-.12,1.77-1.51,2.68C123.19,91.08,123.68,90.18,125,89.35Z" transform="translate(0 0)"/><path class="cls-2" d="M5.53,60.9c-0.38-1,.17-1.86,1.79-2.75C7.51,59.26,7,60,5.53,60.9Z" transform="translate(0 0)"/><path class="cls-2" d="M122.62,55.36A1.74,1.74,0,0,1,123.81,53a0.81,0.81,0,0,1,.42.63A2.14,2.14,0,0,1,122.62,55.36Z" transform="translate(0 0)"/><path class="cls-2" d="M122.56,41.15c-0.69-1-.45-1.47,1-2.25C124.36,39.85,124,40.57,122.56,41.15Z" transform="translate(0 0)"/><path class="cls-2" d="M123.87,44.87c0.64,1,.26,1.81-1.06,2.3C122.16,46.16,122.43,45.55,123.87,44.87Z" transform="translate(0 0)"/><path class="cls-2" d="M93.5,22.2c1.09-.57,1.66-0.26,2.27,1.19C94.85,24.14,94.33,23.88,93.5,22.2Z" transform="translate(0 0)"/><path class="cls-2" d="M14,31.86a1.94,1.94,0,0,1-3.05.06C11.68,31.21,11.91,31.21,14,31.86Z" transform="translate(0 0)"/><path class="cls-2" d="M124.77,79.43c0.45,1.09.06,1.73-1.43,2.45C122.84,80.95,123.18,80.36,124.77,79.43Z" transform="translate(0 0)"/><path class="cls-2" d="M4.94,93.14c-0.51-1.1-.25-1.63,1.29-2.59C6.73,91.57,6.39,92.26,4.94,93.14Z" transform="translate(0 0)"/><path class="cls-2" d="M123.1,59.66c-0.84-1.23-.55-2.26.49-2.57a1,1,0,0,1,.56.51C123.88,58.25,123.53,58.86,123.1,59.66Z" transform="translate(0 0)"/><path class="cls-2" d="M10,97.84c-1.32.51-1.81-.18-1.58-2.25A3.12,3.12,0,0,1,10,97.84Z" transform="translate(0 0)"/><path class="cls-2" d="M12,97.78c-1.1.63-1.66,0.27-2.15-1.41C10.77,95.93,11.25,96.24,12,97.78Z" transform="translate(0 0)"/><path class="cls-2" d="M20.66,96.42c1.08-.54,2-0.11,2.65,1.25C22.34,98.14,22.06,98,20.66,96.42Z" transform="translate(0 0)"/><path class="cls-2" d="M106.91,23.61c-1.1.49-1.36,0.28-2-1.6C105.87,21.48,106,21.61,106.91,23.61Z" transform="translate(0 0)"/><path class="cls-2" d="M80.49,97.9c-1.2.49-2,.14-2.65-1.11A2.06,2.06,0,0,1,80.49,97.9Z" transform="translate(0 0)"/><path class="cls-2" d="M36.41,97.74c-1.21,0-1.33-.12-2.68-1.59a2,2,0,0,1,2.21.49c0.31,0.25.92,0.51,0.44,1.12Z" transform="translate(0 0)"/><path class="cls-2" d="M25.78,23.45c-1,.48-1.6.2-2.63-1.24C24.18,21.66,25.2,22.15,25.78,23.45Z" transform="translate(0 0)"/><path class="cls-2" d="M50.49,23.55c-1.09.41-1.64,0.1-2.27-1.21C49.11,21.65,49.85,22,50.49,23.55Z" transform="translate(0 0)"/><path class="cls-2" d="M123.42,90A2.5,2.5,0,0,1,125,87.36C125.48,88.35,124.87,89.39,123.42,90Z" transform="translate(0 0)"/><path class="cls-2" d="M7,83.08c0.25,1.12-.3,1.92-1.68,2.49C4.81,84.66,4.81,84.66,7,83.08Z" transform="translate(0 0)"/><path class="cls-2" d="M43.15,97.71a3.41,3.41,0,0,1-2.75-1.55C41.55,95.57,42.53,96.11,43.15,97.71Z" transform="translate(0 0)"/><path class="cls-2" d="M46.06,23.76c-1.17.24-1.44,0.05-2.28-1.56C44.82,21.73,45.69,22.33,46.06,23.76Z" transform="translate(0 0)"/><path class="cls-2" d="M112.83,21.94A1.56,1.56,0,0,1,115,23.17a0.58,0.58,0,0,1-.25.46,1,1,0,0,1-.77-0.08A16.73,16.73,0,0,1,112.83,21.94Z" transform="translate(0 0)"/><path class="cls-2" d="M76.14,22.34c1-.5,1.56-0.13,2.45,1.47C77.66,24.3,76.94,23.87,76.14,22.34Z" transform="translate(0 0)"/><path class="cls-2" d="M14.13,25.13a2,2,0,0,1-3,.12C12.06,24.1,13.05,24.8,14.13,25.13Z" transform="translate(0 0)"/><path class="cls-2" d="M85,96.81a1.75,1.75,0,0,1,2.69.62C86.83,98.14,86.1,98,85,96.81Z" transform="translate(0 0)"/><path class="cls-2" d="M63.48,96.6c1-.46,1.75-0.15,2.65,1.09C65.22,98.29,64.43,98,63.48,96.6Z" transform="translate(0 0)"/><path class="cls-2" d="M36.06,96.2c1.1-.46,1.61-0.24,2.6,1.1C37.78,97.9,37.14,97.64,36.06,96.2Z" transform="translate(0 0)"/><path class="cls-2" d="M62,41.58l-1.47,2c-0.21-.79-0.69-1.58-0.46-1.94A1.38,1.38,0,0,1,62,41.58Z" transform="translate(0 0)"/><path class="cls-2" d="M12.07,23.8c-0.69,1.42-1.91.89-2.94,1.09C9.55,23.77,10.52,23.39,12.07,23.8Z" transform="translate(0 0)"/><path class="cls-2" d="M94.78,97.75c-1.33.35-2.09-.35-2.89-1.06C92.8,96.09,93.73,96.41,94.78,97.75Z" transform="translate(0 0)"/><path class="cls-2" d="M122.73,51.27a1.56,1.56,0,0,1,1-2.23,0.78,0.78,0,0,1,.47.58C124.19,50.29,123.7,50.8,122.73,51.27Z" transform="translate(0 0)"/><path class="cls-2" d="M68.82,62.59l1.41,1.14L69.41,65C68.11,63.76,68.1,63.71,68.82,62.59Z" transform="translate(0 0)"/><path class="cls-2" d="M123.18,80.08c-0.35-1.34.51-1.92,1.31-2.56C125.16,78.4,124.75,79.2,123.18,80.08Z" transform="translate(0 0)"/><path class="cls-2" d="M123.45,88.19c-0.38-1.4.58-2,1.59-2.74C125.56,87.05,124,87.3,123.45,88.19Z" transform="translate(0 0)"/><path class="cls-2" d="M124.37,75.58c0.52,1,.25,1.64-1.06,2.43C122.77,77,123,76.43,124.37,75.58Z" transform="translate(0 0)"/><path class="cls-2" d="M124.59,73.48A2.49,2.49,0,0,1,123.32,76C122.53,75.1,122.9,74.34,124.59,73.48Z" transform="translate(0 0)"/><path class="cls-2" d="M54,96.28a2.17,2.17,0,0,1,2.7,1.27C55.71,98,55,97.7,54,96.28Z" transform="translate(0 0)"/><path class="cls-2" d="M5.44,71.51c-0.29-1.26.13-1.94,1.58-2.7C7.29,70.16,6.36,70.75,5.44,71.51Z" transform="translate(0 0)"/><path class="cls-2" d="M116.9,96.82a2,2,0,0,1,2.7.72C118.65,98.19,117.83,98,116.9,96.82Z" transform="translate(0 0)"/><path class="cls-2" d="M108.55,23.75c-1,.28-1.71-0.44-1.94-1.91C107.63,21.65,107.77,21.78,108.55,23.75Z" transform="translate(0 0)"/><path class="cls-2" d="M28.17,97.78L27,96.38c1.17-.47,1.69-0.26,2.54,1.08l-1.44.29Z" transform="translate(0 0)"/><path class="cls-2" d="M67.17,30.67a2.83,2.83,0,0,0,1.11,4.14,2.18,2.18,0,0,1-2-1.53A2.33,2.33,0,0,1,67.17,30.67Z" transform="translate(0 0)"/><path class="cls-2" d="M27.31,97.55c-1.09.33-1.21,0.26-2.25-1.24C26,95.69,26.83,96.13,27.31,97.55Z" transform="translate(0 0)"/><path class="cls-2" d="M73,97.62c-1,.61-1.89.33-2.55-0.85A1.86,1.86,0,0,1,73,97.62Z" transform="translate(0 0)"/><path class="cls-2" d="M63.83,97.64c-1,.5-1.59.27-2.6-1.07C62.15,96.09,62.88,96.37,63.83,97.64Z" transform="translate(0 0)"/><path class="cls-2" d="M124.76,91.44c0.79,1.16.4,1.75-1.36,2.13C123.24,92.45,124.08,92,124.76,91.44Z" transform="translate(0 0)"/><path class="cls-2" d="M123.75,42.88a1.43,1.43,0,0,1,.26.68A17.31,17.31,0,0,1,122.83,45a1.82,1.82,0,0,1-.47-0.69,13.86,13.86,0,0,1,1-1.56Z" transform="translate(0 0)"/><path class="cls-2" d="M80.06,22.41c1.21-.43,2-0.08,2.34.82a0.59,0.59,0,0,1-.08.49,1.12,1.12,0,0,1-.81.09A15.94,15.94,0,0,1,80.06,22.41Z" transform="translate(0 0)"/><path class="cls-2" d="M18.83,96.35a2.94,2.94,0,0,1,2.58,1.32C20.19,98.34,19.58,98,18.83,96.35Z" transform="translate(0 0)"/><path class="cls-2" d="M68.38,97.69c-1.13.45-1.64,0.24-2.59-1A1.94,1.94,0,0,1,68.38,97.69Z" transform="translate(0 0)"/><path class="cls-2" d="M111.15,21.94a1.62,1.62,0,0,1,2.06,1.34,0.47,0.47,0,0,1-.22.37,0.93,0.93,0,0,1-.68-0.08C111.9,23.1,111.58,22.56,111.15,21.94Z" transform="translate(0 0)"/><path class="cls-2" d="M122.67,53.29c-0.55-1-.13-1.77,1.23-2.13C124.25,52.06,123.9,52.67,122.67,53.29Z" transform="translate(0 0)"/><path class="cls-2" d="M75.62,97.83a2.42,2.42,0,0,1-2.62-.9C73.9,96.3,74.93,96.63,75.62,97.83Z" transform="translate(0 0)"/><path class="cls-2" d="M5.69,95.19c-1-1.17-.84-1.73.72-2.66C6.76,93.61,6.13,94.34,5.69,95.19Z" transform="translate(0 0)"/><path class="cls-2" d="M99.48,97.59a1.82,1.82,0,0,1-2.57-.84A1.94,1.94,0,0,1,99.48,97.59Z" transform="translate(0 0)"/><path class="cls-2" d="M122.67,57.26c-0.55-1-.16-1.65,1.23-2.1C124.28,56.09,124.07,56.46,122.67,57.26Z" transform="translate(0 0)"/><path class="cls-1" d="M55.95,45.52a2.57,2.57,0,0,1,1.07.43c0.57,0.71-.23,2.74-1.14,3l0.07-.39,0.43-.38,0,0-0.09-1L56.34,47l0.3-.2-0.5-.3,0,0-0.22-.27V45.52Z" transform="translate(0 0)"/><path class="cls-2" d="M23.79,23.54c-1.4.53-2-.54-2.73-1.19C22,21.84,22.76,22.16,23.79,23.54Z" transform="translate(0 0)"/><path class="cls-2" d="M4.78,91.08c-0.33-1.17-.08-1.5,1.54-2.21C6.48,89.8,6.06,90.41,4.78,91.08Z" transform="translate(0 0)"/><path class="cls-2" d="M122.6,39c-0.6-1.11-.33-1.62,1.09-2.16C124.08,37.85,123.81,38.41,122.6,39Z" transform="translate(0 0)"/><path class="cls-2" d="M77.89,97.67a1.65,1.65,0,0,1-2.4-.86A1.66,1.66,0,0,1,77.89,97.67Z" transform="translate(0 0)"/><path class="cls-2" d="M111.64,23.52c-0.81.48-1.32,0.06-1.9-1.57C110.81,21.68,110.83,21.69,111.64,23.52Z" transform="translate(0 0)"/><path class="cls-2" d="M37.79,61l-3.56,4.43a1.15,1.15,0,0,1,0-.57A11.64,11.64,0,0,1,37.79,61Z" transform="translate(0 0)"/><path class="cls-2" d="M29.24,96.26a1.78,1.78,0,0,1,2.42,1C30.77,97.89,30.12,97.64,29.24,96.26Z" transform="translate(0 0)"/><path class="cls-2" d="M97,97.61c-1,.49-1.87.15-2.57-1A2.08,2.08,0,0,1,97,97.61Z" transform="translate(0 0)"/><path class="cls-2" d="M108.23,22c1-.18,1.28.06,1.86,1.68C109.19,24,108.67,23.57,108.23,22Z" transform="translate(0 0)"/><path class="cls-2" d="M85.31,97.68c-0.83.68-1.65,0.41-2.29-.77C83.85,96.46,84.44,96.66,85.31,97.68Z" transform="translate(0 0)"/><path class="cls-2" d="M106.87,97.77l-0.68-.87c0.94-.72,1.69-0.48,2.47.93l-1.82-.09Z" transform="translate(0 0)"/><path class="cls-2" d="M101.4,22.19c1.43-.13,1.86.91,2.53,1.73C102.87,24.15,102.27,23.74,101.4,22.19Z" transform="translate(0 0)"/><path class="cls-2" d="M5.64,36.8a1.51,1.51,0,0,1,.69-2,2.8,2.8,0,0,1,1.16.58Z" transform="translate(0 0)"/><path class="cls-2" d="M19.47,23.75c-1.26.4-1.85-.52-2.72-1A1.94,1.94,0,0,1,19.47,23.75Z" transform="translate(0 0)"/><path class="cls-2" d="M124.14,41.31c-0.32.49-.62,1-1,1.47a0.63,0.63,0,0,1-.56.14,0.88,0.88,0,0,1-.24-0.67A1.56,1.56,0,0,1,123.81,41Z" transform="translate(0 0)"/><path class="cls-2" d="M92.29,97.65c-1.47.25-1.88,0.08-2.5-1C90.69,96.26,91.54,96.59,92.29,97.65Z" transform="translate(0 0)"/><path class="cls-2" d="M12.77,34.6c-0.77.84-1.34,0.9-2,.29a2.3,2.3,0,0,1-.33-0.7,1.87,1.87,0,0,1,.84-0.25A8.92,8.92,0,0,1,12.77,34.6Z" transform="translate(0 0)"/><path class="cls-2" d="M119.66,22.32c1.18,0.59,1.29,1.11.59,2.64C119.36,24.24,119.66,23.3,119.66,22.32Z" transform="translate(0 0)"/><path class="cls-2" d="M103.76,96.73a2.26,2.26,0,0,1,2.49.8C105.33,98.19,104.54,97.94,103.76,96.73Z" transform="translate(0 0)"/><path class="cls-2" d="M123,74c-0.26-1.05-.1-1.29,1.35-2.11C124.77,72.78,124.28,73.54,123,74Z" transform="translate(0 0)"/><path class="cls-2" d="M12.47,22.29a2.65,2.65,0,0,1,2.79,0C14.38,23.22,13.63,23.21,12.47,22.29Z" transform="translate(0 0)"/><path class="cls-2" d="M116.7,23.38c-1,.37-1.08.26-1.86-1.41C115.7,21.48,116.12,21.79,116.7,23.38Z" transform="translate(0 0)"/><path class="cls-2" d="M109.18,97.76l-0.72-1c0.91-.45,1.51-0.23,2.55,1l-1.86-.1Z" transform="translate(0 0)"/><path class="cls-2" d="M116.5,22c1.15-.37,1.54.1,1.57,1.93C117,23.69,116.87,22.75,116.5,22Z" transform="translate(0 0)"/><path class="cls-2" d="M7.51,94.5a3,3,0,0,1,.43,2.82C6.92,96.87,6.84,96.39,7.51,94.5Z" transform="translate(0 0)"/><path class="cls-2" d="M123.17,72.13c-0.49-1.17.35-1.58,1-2.1C124.88,70.74,124.6,71.37,123.17,72.13Z" transform="translate(0 0)"/><path class="cls-2" d="M103.78,97.64a2.05,2.05,0,0,1-2.44-.88A1.65,1.65,0,0,1,103.78,97.64Z" transform="translate(0 0)"/><path class="cls-2" d="M71.87,56.61v1c-1.42.09-2.06-.4-1.73-1.33Z" transform="translate(0 0)"/><path class="cls-2" d="M123.6,34.92a1.3,1.3,0,0,1-.67,1.93,0.58,0.58,0,0,1-.48-0.11,1,1,0,0,1,0-.77A9.55,9.55,0,0,1,123.6,34.92Z" transform="translate(0 0)"/><path class="cls-2" d="M118,22c1.25-.33,1.41.41,1.18,2.38C118.08,23.91,118.57,22.75,118,22Z" transform="translate(0 0)"/><path class="cls-2" d="M7.53,29.6c0,1.34-1,1.77-1.76,2.44C5.46,31.1,5.65,30.84,7.53,29.6Z" transform="translate(0 0)"/><path class="cls-2" d="M68.24,96.67a1.82,1.82,0,0,1,2.39,1.06C69.8,98.16,69,97.8,68.24,96.67Z" transform="translate(0 0)"/><path class="cls-2" d="M123.9,59.22c0.46,0.81.3,1.16-.91,2.08C122.36,60.48,122.64,59.85,123.9,59.22Z" transform="translate(0 0)"/><path class="cls-2" d="M89.61,97.86l-2.23-1a1.46,1.46,0,0,1,2.42.75Z" transform="translate(0 0)"/><path class="cls-2" d="M7.15,93.71L6.75,96.46C5.68,95.93,5.75,95.22,7.15,93.71Z" transform="translate(0 0)"/><path class="cls-2" d="M124,47.26c0.07,1-.07,1.23-1.08,1.82C122.21,48.07,122.61,47.37,124,47.26Z" transform="translate(0 0)"/><path class="cls-2" d="M10,27L7.8,28.64c-0.22-1.29.1-1.55,2-1.85Z" transform="translate(0 0)"/><path class="cls-2" d="M123.27,70.5a1.38,1.38,0,0,1,.79-2.1,1,1,0,0,1,.42.62A15.78,15.78,0,0,1,123.27,70.5Z" transform="translate(0 0)"/><path class="cls-2" d="M123.13,64.86a1.47,1.47,0,0,1,.76-2,0.7,0.7,0,0,1,.41.52A1.63,1.63,0,0,1,123.13,64.86Z" transform="translate(0 0)"/><path class="cls-2" d="M122.58,31.53c-0.38-1-.17-1.41.93-2.06C124.06,30.3,123.84,30.82,122.58,31.53Z" transform="translate(0 0)"/><path class="cls-2" d="M115.11,97.68a2,2,0,0,1-2.32-1C113.78,96.28,114.36,96.51,115.11,97.68Z" transform="translate(0 0)"/><path class="cls-2" d="M122.2,24.44c0.81,0.76.72,1.23-.45,2.54C121.32,26.29,121.4,25.8,122.2,24.44Z" transform="translate(0 0)"/><path class="cls-2" d="M123.76,31.32a1.66,1.66,0,0,1-1.12,2C122.13,32.44,122.48,31.8,123.76,31.32Z" transform="translate(0 0)"/><path class="cls-2" d="M113.09,97.68a2.2,2.2,0,0,1-2.51-.89c0.9-.6,1.91-0.22,2.48.92Z" transform="translate(0 0)"/><path class="cls-2" d="M101.73,97.64a2.23,2.23,0,0,1-2.52-.91c0.87-.52,1.51-0.28,2.5.92h0Z" transform="translate(0 0)"/><path class="cls-2" d="M87.05,62.37l0.62-.9c1,0.4,1.41,1,1.19,1.81l-1.78-.93Z" transform="translate(0 0)"/><path class="cls-2" d="M122.88,95.36a18.5,18.5,0,0,1,1.81-.48,0.75,0.75,0,0,1,.44.49,1,1,0,0,1-.56.62,9.76,9.76,0,0,1-1.66-.27Z" transform="translate(0 0)"/><path class="cls-2" d="M125.05,93.41c0.08,1-.44,1.42-1.87,1.39C123.27,94,123.58,93.8,125.05,93.41Z" transform="translate(0 0)"/><path class="cls-2" d="M124.09,66.55c0.58,0.86.36,1.3-.94,2C122.67,67.73,122.8,67.43,124.09,66.55Z" transform="translate(0 0)"/><path class="cls-2" d="M122.15,28.18c-0.43-1.08.48-1.52,0.79-2.2C123.81,26.61,123.69,27,122.15,28.18Z" transform="translate(0 0)"/><path class="cls-2" d="M122.58,35.2c-0.52-.89-0.37-1.19,1-2C123.89,34.16,123.64,34.66,122.58,35.2Z" transform="translate(0 0)"/><path class="cls-2" d="M121.05,23.27c0.94,0.58.95,0.85,0.14,2.46C120.62,25.29,120.62,25.29,121.05,23.27Z" transform="translate(0 0)"/><path class="cls-2" d="M121.45,96.59c1.12-.24,1.66.52,2.41,1C122.8,98.05,122.13,97.79,121.45,96.59Z" transform="translate(0 0)"/><path class="cls-2" d="M16.81,27.1L19,25.94A2.6,2.6,0,0,1,18.77,27a12.75,12.75,0,0,1-1.79.52Z" transform="translate(0 0)"/><path class="cls-2" d="M7.38,27.61c0.1,1.19-.9,1.06-1.58,1.37C5.73,27.86,6.22,27.44,7.38,27.61Z" transform="translate(0 0)"/><path class="cls-2" d="M17,26.91l-2.38-.12c0.56-1,1.07-1.06,2.38-.24v0.37Z" transform="translate(0 0)"/><path class="cls-2" d="M15.41,28.6L13.14,29c0.19-1.26.8-1.42,2.22-.75Z" transform="translate(0 0)"/><path class="cls-2" d="M123,63.17a1.73,1.73,0,0,1,.92-2.13C124.47,61.76,124.3,62.17,123,63.17Z" transform="translate(0 0)"/><path class="cls-2" d="M123.24,66.85a1,1,0,0,1,.12-1.64,4.22,4.22,0,0,1,.81-0.35,2.36,2.36,0,0,1,0,.94A6,6,0,0,1,123.24,66.85Z" transform="translate(0 0)"/><path class="cls-2" d="M8.28,32.79a11.06,11.06,0,0,0-.91.71,11.23,11.23,0,0,0-.72.9,1.77,1.77,0,0,1-.32-0.8,3.73,3.73,0,0,1,1-1.16A2.32,2.32,0,0,1,8.28,32.79Z" transform="translate(0 0)"/><path class="cls-2" d="M4.63,88.94L6.49,87c0.34,1.06-.06,1.54-1.59,2.16Z" transform="translate(0 0)"/><path class="cls-2" d="M7.89,30.24c-0.18-1.47-.18-1.47,1.22-1.94A1.89,1.89,0,0,1,7.89,30.24Z" transform="translate(0 0)"/><path class="cls-2" d="M122.51,95.93c0.65,0.16,1.31.29,2,.49a0.68,0.68,0,0,1,.15.53,0.93,0.93,0,0,1-.69.25,14.68,14.68,0,0,1-1.52-.95Z" transform="translate(0 0)"/><path class="cls-2" d="M122.51,29.62c-0.28-.87-0.13-1.2.86-1.9C123.84,28.45,123.56,29.08,122.51,29.62Z" transform="translate(0 0)"/><path class="cls-2" d="M65.36,65.61l1-1.95C67.24,65.27,67.24,65.27,65.36,65.61Z" transform="translate(0 0)"/><path class="cls-2" d="M14.57,29.47a7.59,7.59,0,0,1-1,.82,1.36,1.36,0,0,1-.8.09,0.59,0.59,0,0,1-.13-0.5,1.41,1.41,0,0,1,.64-0.62,4.13,4.13,0,0,1,1.15,0Z" transform="translate(0 0)"/><path class="cls-2" d="M7.47,29.08L5.61,30.68C5.39,29.56,5.84,29.11,7.47,29.08Z" transform="translate(0 0)"/><path class="cls-2" d="M15.88,28.37c0.61-.87,1.46-0.65,2.41-0.58C17.63,28.9,16.71,28.45,15.88,28.37Z" transform="translate(0 0)"/><path class="cls-2" d="M8.52,33.5l-0.85,2a2.61,2.61,0,0,1-.46-1.13,5.68,5.68,0,0,1,1-1.17Z" transform="translate(0 0)"/><path class="cls-2" d="M15.69,25.74c1.07-.78,1.64-0.66,2.39.52Z" transform="translate(0 0)"/><path class="cls-2" d="M115.76,97.76l-0.92-1.06c1-.38,1.51-0.14,2.13,1h-1.24Z" transform="translate(0 0)"/><path class="cls-2" d="M12.76,23.23H10.48c0.55-.88,1.12-1,2.26-0.3Z" transform="translate(0 0)"/><path class="cls-2" d="M9.06,34l0.21,2.08a3,3,0,0,1-1-.57,8.41,8.41,0,0,1,.32-1.55Z" transform="translate(0 0)"/><path class="cls-2" d="M11.07,35.83a2.88,2.88,0,0,1-1.29-.15,2.28,2.28,0,0,1-.34-1.13l0.27-.17,1.4,1.14Z" transform="translate(0 0)"/><path class="cls-2" d="M100,22.3c1.06-.16,1.38.6,1.84,1.2C101,23.86,100.67,23.63,100,22.3Z" transform="translate(0 0)"/><path class="cls-2" d="M8.89,32.87l1.72,0.53c-0.75,1-1.31.89-1.84-.22Z" transform="translate(0 0)"/><path class="cls-2" d="M17.21,29.34l-2.42.35c0.71-.91,1.15-1,2.36-0.71Z" transform="translate(0 0)"/><path class="cls-2" d="M120.42,97.77l-0.83-.88c0.8-.5,1.36-0.29,2,0.84h-1.23Z" transform="translate(0 0)"/><path class="cls-2" d="M50.71,67.52l-1.1-1.71h1.32v1.63Z" transform="translate(0 0)"/><path class="cls-2" d="M9.55,32.57c0.95-.53,1.2-0.48,1.91.35C11,33.32,11,33.32,9.55,32.57Z" transform="translate(0 0)"/><path class="cls-2" d="M9,30.33L7.85,32c-0.46-1.07-.42-1.14.88-1.86Z" transform="translate(0 0)"/><path class="cls-2" d="M6.31,27.13l1.34-1.6,0.18,0.11L7.63,27.13H6.31Z" transform="translate(0 0)"/><path class="cls-2" d="M12.79,30.9h2.1C14.37,31.55,13.89,31.6,12.79,30.9Z" transform="translate(0 0)"/><path class="cls-2" d="M14.07,27.26h2.2C15.62,28,15.5,28,14.07,27.26Z" transform="translate(0 0)"/><path class="cls-2" d="M17.12,24.89c0.73-.58.94-0.47,1.86,1Z" transform="translate(0 0)"/><path class="cls-2" d="M5.89,33.05c-0.15-1,.65-1.23,1.23-1.67l0.23,0.17L6.16,33.2Z" transform="translate(0 0)"/><path class="cls-2" d="M9.24,38.31l1.48-1C10.88,38.3,10.52,38.58,9.24,38.31Z" transform="translate(0 0)"/><path class="cls-2" d="M41,71.76L39.63,71,41,70.25v1.51Z" transform="translate(0 0)"/><path class="cls-2" d="M19.42,24a1.56,1.56,0,0,1,1.32,1.74l-0.28.17Z" transform="translate(0 0)"/><path class="cls-2" d="M19.48,25.53l-1.54-1.39C19,24,19.59,24.4,19.48,25.53Z" transform="translate(0 0)"/><path class="cls-2" d="M14.21,30.05L16,29.83,16,30.28l-1.75.28Z" transform="translate(0 0)"/><path class="cls-2" d="M61.79,39.44c-0.5.47-.47,1.48-1.49,1.43L60,40.53l1.64-1.29Z" transform="translate(0 0)"/><path class="cls-2" d="M10.91,36.35c0,0.86-.67.95-1.25,1.19l-0.21-.21,1.21-1.18Z" transform="translate(0 0)"/><path class="cls-2" d="M5.34,34.81l0.08-1.6c0.69,0.65,1,1.11.3,1.62H5.34Z" transform="translate(0 0)"/><path class="cls-2" d="M14,32.6c-0.4,1-.62,1-1.81.4Z" transform="translate(0 0)"/><path class="cls-2" d="M10.44,26.37L11,25.73l1.15,0.49v0.23l-1.61.18Z" transform="translate(0 0)"/><path class="cls-2" d="M21.31,26.22l-0.46-1.53c1.13,0.23.84,0.87,0.77,1.43Z" transform="translate(0 0)"/><path class="cls-2" d="M56.26,47.24l0.09,1L56.19,48h0l0.16,0.21-0.43.38,0,0-0.21-.42,0,0L55.56,48h0Z" transform="translate(0 0)"/><path class="cls-2" d="M55.94,48.6L55.88,49h0l-0.29-.19V48h0l0.22,0.22,0,0L56,48.62Z" transform="translate(0 0)"/><path class="cls-2" d="M56.14,46.46l0.5,0.3-0.3.2Z" transform="translate(0 0)"/><path class="cls-1" d="M55.58,48.79L55.87,49a0.1,0.1,0,0,0-.06.15l-0.24-.19V48.79Z" transform="translate(0 0)"/><path class="cls-2" d="M55.95,46.22l0.22,0.27Z" transform="translate(0 0)"/><path class="cls-2" d="M55.56,48.95l0.24,0.19v0Z" transform="translate(0 0)"/><path class="cls-1" d="M56,27.86c2.62-.42,5.23-1,7.87-1.24,7-.68,14,0.29,20.84,1.59a1.43,1.43,0,0,1,.69.3,4.5,4.5,0,0,0,4.15,1,1.07,1.07,0,0,1,1.43.69,10.23,10.23,0,0,0,1.24,1.72c-0.3,0-.55,0-0.8,0a6.66,6.66,0,0,0-4,.7,3.59,3.59,0,0,1-2.86-.17,39.19,39.19,0,0,0-8.26-2.65A65.69,65.69,0,0,0,56,28.17Z" transform="translate(0 0)"/><path class="cls-1" d="M66.33,69.47l5.57,0.32a5.64,5.64,0,0,1-.35,1.07,8.63,8.63,0,0,0-1.08,4.44c0.05,3.61,0,7.22,0,10.83A7.86,7.86,0,0,0,71,88.86,2,2,0,0,0,72.33,90,1.82,1.82,0,0,0,73.6,88.9a13.3,13.3,0,0,0,.46-6.29C74,82.3,74,82,73.92,81.68l0.27-.14a11.45,11.45,0,0,1,.92,1.56,17.63,17.63,0,0,1,1.17,7.1A6.62,6.62,0,0,0,76.71,92c0.14,0.5.3,1,.49,1.63H69.93c-1,0-2.06,0-3.09,0-0.83,0-1-.33-0.68-1a2.34,2.34,0,0,1,.18-0.45c1.2-1.76,1.07-3.78,1.13-5.76,0-1.67.18-3.34,0.14-5-0.07-3.18-.2-6.36-0.4-9.53A10,10,0,0,0,66.33,69.47Z" transform="translate(0 0)"/><path class="cls-1" d="M91.52,94.74c0-1-.68-1.07-1.4-1.05-0.89,0-1.79,0-2.69,0L87.19,96H86.85c-0.69-.65-0.22-1.57-0.42-2.44H80.9a4,4,0,0,1,.28-1.37c1.74-2.51,1.73-5.36,1.66-8.22-0.09-3.74-.23-7.47-0.43-11.2a13.2,13.2,0,0,0-.68-2.49,1.55,1.55,0,0,1-.09-0.95,0.93,0.93,0,0,1,.86-0.15,5.53,5.53,0,0,0,3.66.29c0.68-.18,1.18.22,0.75,0.91-1.58,2.54-1.27,5.3-1.16,8.07,0.08,2,.06,4.06.07,6.09,0,1.1,0,2.2,0,3.29a2.22,2.22,0,0,0,1.33,1.87A1.33,1.33,0,0,0,88.7,88.6a11,11,0,0,0,.42-6.17,1.75,1.75,0,0,1,0-1,7.83,7.83,0,0,1,.85.85A8.44,8.44,0,0,1,91.37,87c0.06,1,.06,2.06.13,3.09a3.81,3.81,0,0,0,.3,1.4A3.2,3.2,0,0,1,91.52,94.74Z" transform="translate(0 0)"/><path class="cls-1" d="M80.33,65l1.18,0.58-0.14,1.7-0.11-1.49-0.41.74Z" transform="translate(0 0)"/><path class="cls-1" d="M31.52,92.85l-2.77-.19c1.69-2.23,1.07-4.55.89-6.84l-0.25-.07-1.1,3-0.27,0-1.21-4.06c-0.19.66-.3,1.09-0.43,1.52-0.51,1.72-1,3.47-1.58,5.15a9.25,9.25,0,0,1-1.29,1.75,2.21,2.21,0,0,0-.28.83c-0.08.4-.1,0.81-0.15,1.21l-0.33,0-0.13-1.75c-2.18-.83-2.66-4.66-1.33-6.28a3.58,3.58,0,0,1,1-.61,3.09,3.09,0,0,0,.41.82,1.72,1.72,0,0,0,.75.36,0.49,0.49,0,0,0,.28-0.24,11.64,11.64,0,0,0,2-5.84,0.59,0.59,0,0,0-.12-0.2c-0.72,0-.9.37-0.76,1.05a1.13,1.13,0,0,1-.09.86,1.88,1.88,0,0,1-1.06.13A1,1,0,0,1,23.22,83c-1.16-1.32-.59-4.21,1-4.86a5.81,5.81,0,0,1,1.86,0c0.26-1.56.62-3.29,0.81-5a3.19,3.19,0,0,0-.47-2,2.83,2.83,0,0,1-.25-2.36c1.9,1.19,3.76,1.6,5.79-.21a8.11,8.11,0,0,1-.24,2.14,14,14,0,0,0-.54,9c0.8,3.57,1.53,7.17,2.34,10.74a14.81,14.81,0,0,0,1,2.3l-2.23.14-0.12,2.1H31.71Zm-3-9.73c0.82-2.23-.07-4.27,0-6.32C27.62,78.86,27.09,80.91,28.48,83.12Z" transform="translate(0 0)"/><path class="cls-1" d="M21.56,79.71V67.56h0.12V79.74Z" transform="translate(0 0)"/><path class="cls-1" d="M61.62,89V76.84h0.07V89Z" transform="translate(0 0)"/><path class="cls-1" d="M61.88,71.14V75.4h0V71.14h0Z" transform="translate(0 0)"/><path class="cls-1" d="M108.44,77.54V68.62h0.06v8.95Z" transform="translate(0 0)"/><path class="cls-1" d="M121.59,68.55a56.45,56.45,0,0,1,.61,6,17.21,17.21,0,0,1-.75,4.93,5.6,5.6,0,0,1-1.87,2.47,2.81,2.81,0,0,1-4.41-1.36,4.26,4.26,0,0,1,.17-3.82A3.58,3.58,0,0,1,117,75.6a1.36,1.36,0,0,1,.9.65,2.49,2.49,0,0,1-.34.84,4.61,4.61,0,0,0-.36,1.75c0.09,0.6.67,0.58,1.15,0.27a3.6,3.6,0,0,0,.61-4.4,1.8,1.8,0,0,0-2.46-.25,5,5,0,0,0-2.07,3.79,16.73,16.73,0,0,0,1.13,9.37,5.67,5.67,0,0,0,.92,1.46c1.28,1.45,3,1.38,3.9-.33A18.21,18.21,0,0,0,121.52,85a3.11,3.11,0,0,1,.27-1,5.7,5.7,0,0,1,.33.89,10.57,10.57,0,0,1-.63,6.35,7.92,7.92,0,0,1-1.82,2.32c-0.93.91-1.81-.09-2.66-0.32-2.1-.57-3.33-2.16-4.36-4-1.12-2-1-4.23-1.37-6.37a18.11,18.11,0,0,1,.25-7.87c0.64-2.38,1.6-4.78,3.81-6.31a3.21,3.21,0,0,1,3.64-.21A2.12,2.12,0,0,0,121.59,68.55Z" transform="translate(0 0)"/><path class="cls-1" d="M18.24,83.8a5,5,0,0,1,.34,1.48c-0.16,1.75-.4,3.5-0.63,5.25-0.14,1.07-.32,2.13-0.5,3.2-0.09.56-.22,1.12-0.33,1.67l-0.44-.07,0.2-2.64-2.51.79-0.58,2.17-0.51,0a14.12,14.12,0,0,0-.12-1.69,2,2,0,0,0-.48-1c-0.65-.7-1.37-1.33-2-2-0.38-.38-0.72-0.81-1.06-1.23a1.18,1.18,0,0,1-.27-0.48C9,87.5,8.59,85.77,8.36,84a19.82,19.82,0,0,1,.2-2.2,18.31,18.31,0,0,1-.17-3.55,51.34,51.34,0,0,1,1.76-6.39,7.25,7.25,0,0,1,1.4-2.29,3.11,3.11,0,0,1,4.15-.86,1.64,1.64,0,0,0,2.27-.4c0.23,1.08.4,2,.6,2.87,0.16,0.7.34,1.4,0.5,2.1a0.65,0.65,0,0,1,0,.27c-0.52,2.12-.95,4.27-1.6,6.35-0.59,1.89-2,2.69-3.49,2.22a3.53,3.53,0,0,1-2.08-3.94,9.39,9.39,0,0,1,.41-1.67,2.24,2.24,0,0,1,.79-1,1,1,0,0,1,1.48.42,2.4,2.4,0,0,1-.21,1.34A5.77,5.77,0,0,0,14,78.34a0.92,0.92,0,0,0,.51.71,1,1,0,0,0,.82-0.28,3.94,3.94,0,0,0,.15-4.34,1.35,1.35,0,0,0-2.05-.2,6.7,6.7,0,0,0-1.75,2.56,17.61,17.61,0,0,0,.88,11.72c0.71,1.77,2.24,1.89,3.47.44a9.12,9.12,0,0,0,1.82-4.51c0-.19.08-0.37,0.13-0.56A1.2,1.2,0,0,1,18.24,83.8Z" transform="translate(0 0)"/><path class="cls-1" d="M59.6,48.19a17.77,17.77,0,0,1,1.88.77,6.52,6.52,0,0,1,.88.85,4.1,4.1,0,0,0,.8.37l-0.23,2.33-2.84.64a10.7,10.7,0,0,1-1.4.28,1.23,1.23,0,0,1-1.38-1.17c-0.11-.57-0.21-1.14-0.37-1.69-0.31-1.09,0-1.59,1.19-1.81a9.16,9.16,0,0,0,1.49-.55Zm1.21,3a2.33,2.33,0,0,0-.9-0.51,1.67,1.67,0,0,0-.62.57,1.66,1.66,0,0,0,.66.53A2.35,2.35,0,0,0,60.81,51.14Z" transform="translate(0 0)"/><path class="cls-1" d="M67.26,59.34L66.4,60.87a2.14,2.14,0,0,0-1,0,4.63,4.63,0,0,1-3.14.16,0.92,0.92,0,0,0-.49.36l0.83,0.16-0.35.34-0.94-1.2,0.94-1.94,1.18,0.36L63.6,57.6,63.74,59l0.86-.4A10.54,10.54,0,0,0,65,59.92a0.65,0.65,0,0,0,.6.21c0.46-.26.87-0.62,1.32-0.9a0.8,0.8,0,0,1,.4.14v0Z" transform="translate(0 0)"/><path class="cls-1" d="M59.35,58.58c0.32,0.32.61,1,1,.06a0.46,0.46,0,0,1,.4-0.06,1.24,1.24,0,0,1,.31.66c0,0.67-.08,1.33-0.15,2.25L59.38,58.6Z" transform="translate(0 0)"/><path class="cls-1" d="M59.62,48.21a2.24,2.24,0,0,1,3.43,1.27,3.81,3.81,0,0,0-3.45-1.3Z" transform="translate(0 0)"/><path class="cls-1" d="M41.35,64c1.15-.31,3.1,1.74,3.11,3.36A6.46,6.46,0,0,1,41.35,64Z" transform="translate(0 0)"/><path class="cls-1" d="M39.73,64.55a1.44,1.44,0,0,1,.68,0c0.78,1.08,1.51,2.18,2.32,3.37C41.42,68.14,39.95,66.38,39.73,64.55Z" transform="translate(0 0)"/><path class="cls-1" d="M43.42,63.35A2.6,2.6,0,0,1,46,65.67,3,3,0,0,1,43.42,63.35Z" transform="translate(0 0)"/><path class="cls-1" d="M56,48.62l-0.21-.42Z" transform="translate(0 0)"/><path class="cls-1" d="M55.78,48.22L55.56,48Z" transform="translate(0 0)"/><path class="cls-1" d="M56.38,48.21L56.21,48h0l0.17,0.22Z" transform="translate(0 0)"/><polygon class="cls-1" points="56.21 48 56.16 48 56.19 48.02 56.21 48"/><path class="cls-2" d="M28.48,83.12c-1.39-2.21-.85-4.26,0-6.32C28.41,78.85,29.29,80.89,28.48,83.12Z" transform="translate(0 0)"/><path class="cls-2" d="M60.81,51.14a2.35,2.35,0,0,1-.87.59,1.66,1.66,0,0,1-.66-0.53,1.67,1.67,0,0,1,.62-0.57A2.33,2.33,0,0,1,60.81,51.14Z" transform="translate(0 0)"/></svg>