<svg version="1.1" id="Layer_1" xmlns="http://www.w3.org/2000/svg"
	 viewBox="0 0 130 120">
<g>
	<path d="M109.6,17.6c0,7.4-17.2,13.4-17.2,16c0,22,0,42.4,0,64.2c1-0.7,2.2-1.6,3.3-2.6c0.4-0.1,5.4-4.9,7.7-4.9
		c1.9,0,3.6,1.6,3.6,3.3c0,0.9-0.4,1.6-1.2,2.3C95.1,105.5,81.8,115,66.4,115c-11.4,0-33.2-6.6-36.7-19.2c-0.1-0.1-0.1-0.3-0.1-0.4
		c0-0.1,0-0.3,0.1-0.4c-0.1,0-0.1-0.4-0.1-0.9c0-0.4,0-1,0-1.3c0-16.5-0.1-23.1-10.3-26.5c-2.9-0.1-3.3-1.2-3.3-2.2
		c0-28.8,19.1-58.4,51.2-58.4c2.8,0,11.4-0.3,11.4,3.2c0,1-0.6,2-1.3,2.8C67,13.1,57.2,16.1,50.4,24c-9.3,12.2-13,27.5-13,41.2
		c0,0.4,4.4,4.2,5.8,8c1.5,4.1,0.9,14.3,3.3,14.3c3.2,0,8.6-7.4,8.6-12.8c0-2.8,0-3.1,0-13.2c-0.6-0.1-1-0.3-1.6-0.3
		c-3.9,0-6.1,4.1-8.7,4.1c-1.9,0-3.6-1.2-3.6-3.1c0-0.4,0.1-1.2,0.6-1.7c3.3-5.1,6.6-11.6,13.4-11.6c0-18.5,1-17.2,8.6-22.7
		c3.9-2.9,8.4-7.7,14-7.7c6.1,0,11.6,2.8,17.2,2.8c4.5,0,8.3-5.5,12.1-5.5c0.4,0,1,0,1.5,0.3C109.3,16.4,109.6,17,109.6,17.6z
		 M81.1,32.9c-2.3-0.1-4.5-0.4-6.8-0.9C69.6,32,71,43.8,71,71.2c0,1.5,0.1,2.8,0.1,4.2c0,1.6-0.3,3.2-1,4.7
		c-2.9,4.8-11.9,10.3-11.9,15c0,4.4,13.1,7.3,16.7,7.3c5.4,0,6.1-3.5,6.1-5.7C81.1,75.4,81.1,54.1,81.1,32.9z"/>
</g>
</svg>
