<svg xmlns="http://www.w3.org/2000/svg"
	 viewBox="0 0 130 120">
<path d="M65,111.6H16.8c-2.9,0-5.5-0.8-7-3.4c-0.7-1.2-1.1-2.6-1.1-4c-0.1-29.5-0.1-59-0.1-88.5c-0.2-3.9,2.9-7.1,6.7-7.3
	c0,0,0.1,0,0.1,0h0.4c7.4-0.1,14.8,0,22.2-0.1c2.3,0,3.8,1.3,5,2.9s2.5,3.6,3.7,5.4c0.5,1,1.6,1.6,2.8,1.4h63.7
	c5.4,0,8.4,2.9,8.4,8.4v76.6c0,5.5-2.9,8.4-8.4,8.4C97.1,111.6,81.1,111.6,65,111.6z M65.1,35.4H17.4c-3.4,0-4,0.6-4,4.1v63.2
	c0,3.5,0.6,4.1,4,4.1h95.2c3.4,0,4-0.6,4-3.9V39.2c0-3.3-0.6-3.9-3.9-3.9L65.1,35.4z M116.7,30.6v-3.7c0-3.2-0.6-3.7-3.7-3.7
	c-21.2,0-42.4,0-63.6,0.1c-2.6,0.1-5.2-1.2-6.6-3.4c-1.2-1.8-2.3-3.6-3.7-5.3c-0.6-0.7-1.4-1.2-2.4-1.2c-6.6-0.1-13.4-0.1-20-0.1
	c-2.4,0-3.3,0.9-3.3,3.4v12.5c0,0.5,0.1,1,0.1,1.5L116.7,30.6z"/>
<g>
	<path d="M56.7,80.8c-0.1-1.2-0.8-2.3-1.7-3.1c-0.8-0.6-1.9-1-2.9-1c-1.4,0-2.7,0.6-3.6,1.7c-0.8,1-1.1,2.2-1,3.4
		c0.1,1.2,0.8,2.3,1.7,3.1c0.8,0.6,1.8,1,2.9,1c1.4,0,2.8-0.6,3.6-1.7C56.5,83.2,56.9,82,56.7,80.8z M53.9,82.6
		c-0.4,0.5-1.1,0.8-1.7,0.8c-0.5,0-1-0.2-1.4-0.5c-0.5-0.4-0.8-0.9-0.8-1.5c-0.1-0.6,0.1-1.2,0.5-1.6c0.4-0.5,1.1-0.8,1.7-0.8
		c0.5,0,1,0.2,1.4,0.5c0.5,0.4,0.8,0.9,0.8,1.5C54.4,81.6,54.2,82.2,53.9,82.6z"/>
	<path d="M61.6,60.4c0.3,0.1,0.7,0.1,1,0.1c2.2,0,4-1.5,4.5-3.6c0.3-1.2,0.1-2.4-0.6-3.5c-0.7-1.1-1.7-1.8-2.9-2.1
		c-0.3-0.1-0.7-0.1-1-0.1c-2.2,0-4,1.5-4.5,3.6c-0.3,1.2-0.1,2.4,0.6,3.5C59.4,59.4,60.4,60.2,61.6,60.4z M60.5,55.4
		c0.2-1,1.1-1.7,2.2-1.7c0.2,0,0.3,0,0.5,0.1c0.6,0.1,1.1,0.5,1.4,1c0.3,0.5,0.4,1.1,0.3,1.6c-0.2,1-1.1,1.7-2.2,1.7
		c-0.2,0-0.3,0-0.5-0.1c-0.6-0.1-1.1-0.5-1.4-1C60.5,56.6,60.4,56,60.5,55.4z"/>
	<path d="M53.8,62.9c1-0.8,1.6-1.9,1.7-3.1c0.1-1.2-0.2-2.4-1-3.4c-0.9-1.1-2.2-1.7-3.6-1.7c-1,0-2.1,0.4-2.9,1
		c-1,0.8-1.6,1.9-1.7,3.1c-0.1,1.2,0.2,2.4,1,3.4c0.9,1.1,2.2,1.7,3.6,1.7C51.9,63.9,52.9,63.6,53.8,62.9z M48.6,59.1
		c0.1-0.6,0.4-1.1,0.8-1.5c0.4-0.3,0.9-0.5,1.4-0.5c0.7,0,1.3,0.3,1.7,0.8c0.4,0.5,0.5,1,0.5,1.6c-0.1,0.6-0.4,1.1-0.8,1.5
		c-0.4,0.3-0.9,0.5-1.4,0.5c-0.7,0-1.3-0.3-1.7-0.8C48.7,60.2,48.6,59.7,48.6,59.1z"/>
	<path d="M95.3,52.7c-0.2-0.2-0.6-0.4-1.1-0.4c-0.7,0-2.2,0-11.6,8l-0.4,0.3c-1.7-4.3-4.7-8.1-8.3-10.9c-4.4-3.2-9.6-5-15-5
		c-3.7,0-8.2,1.3-11.7,3.4c-4.4,2.6-6.8,6-6.8,9.7c0,4.5,2.5,6.3,4.5,7.8c1.6,1.2,2.8,2.1,2.8,4s-1.2,2.8-2.8,4
		c-2,1.5-4.5,3.3-4.5,7.8c0,3.7,2.4,7.1,6.8,9.7c3.5,2.1,8,3.4,11.7,3.4h0c6.7,0,13-2.6,17.7-7.3c4.7-4.6,7.3-10.7,7.3-17.3
		c1.6-1.8,3.1-3.6,4.5-5.2c2.4-2.9,4.2-5.3,5.5-7.1C95.5,55.2,96.3,53.7,95.3,52.7z M74.9,85.5c-4.3,4.2-10,6.6-16,6.6
		c-6.5,0-16.1-4.5-16.1-10.6c0-3.2,1.7-4.5,3.5-5.8c1.8-1.3,3.8-2.8,3.8-6c0-3.2-2-4.7-3.8-6c-1.8-1.3-3.5-2.6-3.5-5.9
		c0-3.8,3.5-6.4,5.6-7.6c3.1-1.8,7.3-3,10.5-3V47l0,0.2c4.9,0,9.6,1.6,13.6,4.5c3.6,2.7,6.4,6.4,7.8,10.6c-1.2,1-2.4,2.1-3.6,3.2
		c0.2-0.3,0.3-0.6,0.5-0.9c0.4-1.2,0.3-2.4-0.2-3.5c-0.8-1.6-2.4-2.6-4.2-2.6c-0.7,0-1.4,0.2-2,0.5c-1.1,0.5-2,1.5-2.4,2.6
		c-0.4,1.2-0.3,2.4,0.2,3.5c0.8,1.6,2.4,2.6,4.2,2.6c0.7,0,1.4-0.2,2-0.5c0,0,0.1,0,0.1-0.1c-2.6,2.4-5.1,4.8-7.2,6.9
		c-6,0.8-6.8,4.8-7.4,7.7c-0.5,2.4-0.8,3.5-2.5,3.6c-0.6,0-1,0.5-1.1,1c-0.1,0.6,0.2,1.1,0.7,1.3c0.1,0.1,3,1.3,6.5,1.3
		c2.4,0,4.5-0.6,6.1-1.7c2-1.4,3.4-3.6,4.1-6.6c2.2-2.2,4.6-4.8,7.1-7.6C80.6,77.7,78.4,82.1,74.9,85.5z M74.8,63.7
		c-0.2,0.6-0.6,1-1.1,1.3c-0.3,0.1-0.6,0.2-1,0.2c-0.9,0-1.6-0.5-2-1.2c-0.3-0.5-0.3-1.1-0.1-1.7c0.2-0.6,0.6-1,1.1-1.3
		c0.3-0.1,0.6-0.2,1-0.2c0.9,0,1.6,0.5,2,1.2C75,62.6,75,63.2,74.8,63.7z M67.8,76.4l3.9,3.9c-1.1,4.1-3.7,6.2-7.8,6.2
		c-0.9,0-1.8-0.1-2.7-0.3c0.9-1.1,1.2-2.7,1.5-4C63.2,79.4,63.7,77,67.8,76.4z M85.8,64.1c-4,4.7-8.7,10-12.8,14.1L70,75.1
		c3.6-3.6,8.2-7.8,12.5-11.6c0.5-0.4,1-0.9,1.5-1.3c4.3-3.6,6.8-5.5,8.3-6.5C91.3,57.2,89.4,59.8,85.8,64.1z"/>
</g>
</svg>
