<svg xmlns="http://www.w3.org/2000/svg" viewBox="0 0 130 120">
<path d="M65,111.63H16.75c-2.93,0-5.51-.79-7-3.43a8,8,0,0,1-1.14-4q-.11-44.26-.07-88.46a7,7,0,0,1,6.86-7.28h.36c7.36-.15,14.79,0,22.15-.08,2.28,0,3.78,1.29,5,2.93s2.5,3.65,3.72,5.43a2.78,2.78,0,0,0,2.78,1.43h63.74c5.43,0,8.36,2.86,8.36,8.36v76.6c0,5.51-2.86,8.36-8.36,8.36C97.06,111.63,81.06,111.63,65,111.63Zm.14-76.25H17.39c-3.43,0-4,.58-4,4.08v63.23c0,3.51.57,4.08,4,4.08h95.18c3.43,0,4-.57,4-3.93V39.24c0-3.28-.57-3.86-3.86-3.86Zm51.52-4.78V26.88c0-3.21-.57-3.72-3.71-3.72-21.23,0-42.38,0-63.6.08a7.56,7.56,0,0,1-6.64-3.36c-1.22-1.79-2.29-3.65-3.65-5.29a3.33,3.33,0,0,0-2.36-1.21c-6.64-.08-13.36-.08-20-.08-2.43,0-3.29.86-3.29,3.36V29.17a9.93,9.93,0,0,0,.14,1.5Z"/>
<polygon points="59.56 67.64 74.82 83.01 74.82 73.11 69.34 67.64 59.56 67.64"/>
<polygon points="74.82 56.7 73.77 57.86 58.4 57.86 57.35 56.7 51.88 56.7 48.62 60.07 48.62 65.43 49.67 66.59 49.67 76.37 48.62 77.54 48.62 83.01 57.35 91.74 57.35 65.43 74.82 65.43 83.55 56.7 74.82 56.7"/>
<path d="M64.92,100A28.82,28.82,0,0,1,36.05,71,29,29,0,0,1,64.92,42.14a28.94,28.94,0,1,1,0,57.87Zm0-54.61A25.83,25.83,0,0,0,39.31,71a25.79,25.79,0,0,0,7.45,18.16,25.33,25.33,0,0,0,18.16,7.45,25.84,25.84,0,0,0,18.16-7.45A25.33,25.33,0,0,0,90.53,71,25.44,25.44,0,0,0,64.92,45.4Z"/>
</svg>