<svg id="Layer_1" data-name="Layer 1" xmlns="http://www.w3.org/2000/svg" viewBox="0 0 500 500"><defs><style>.cls-1{fill:#fff;}</style></defs><polygon class="cls-1" points="202.77 220.61 335.02 352.86 335.02 267.84 287.79 220.61 202.77 220.61"/><polygon class="cls-1" points="335.02 126.14 325.57 135.59 193.32 135.59 183.87 126.14 136.64 126.14 108.3 154.48 108.3 201.72 117.75 211.16 117.75 296.18 108.3 305.63 108.3 352.86 183.87 428.44 183.87 201.72 335.02 201.72 410.59 126.14 335.02 126.14"/><path class="cls-1" d="M250,500A250,250,0,0,1,73.22,73.22,250,250,0,1,1,426.77,426.78,248.36,248.36,0,0,1,250,500Zm0-471.5A221.49,221.49,0,0,0,93.38,406.62,221.49,221.49,0,1,0,406.62,93.38,220.16,220.16,0,0,0,250,28.5Z"/></svg>