<svg id="Layer_1" data-name="Layer 1" xmlns="http://www.w3.org/2000/svg" viewBox="0 0 158.14 144.5">
<path class="cls-1" d="M47.05,54.27a9.14,9.14,0,0,1-9.11-8.58l-.06-.94H27.65a2.5,2.5,0,0,1,0-5H37.88l.06-.94a9.14,9.14,0,0,1,9.11-8.58h5.77a9.14,9.14,0,0,1,9.1,8.58l.06.94h71.61a2.5,2.5,0,0,1,0,5H62l-.06.94a9.14,9.14,0,0,1-9.1,8.58Zm0-19A4.15,4.15,0,0,0,43,38.55a4.54,4.54,0,0,0-.08.81v5.78A4.54,4.54,0,0,0,43,46a4.15,4.15,0,0,0,4.06,3.32h5.77a4.14,4.14,0,0,0,4-3.32,3.83,3.83,0,0,0,.08-.81V39.36a3.68,3.68,0,0,0-.08-.8,4.14,4.14,0,0,0-4-3.33Z"/>
<path class="cls-1" d="M105.45,84.27a9.14,9.14,0,0,1-9.11-8.58l-.06-.94H27.65a2.5,2.5,0,0,1,0-5H96.28l.06-.94a9.14,9.14,0,0,1,9.11-8.58h5.77a9.14,9.14,0,0,1,9.11,8.58l0,.94h13.21a2.5,2.5,0,0,1,0,5H120.38l0,.94a9.14,9.14,0,0,1-9.11,8.58Zm0-19a4.15,4.15,0,0,0-4.06,3.32,4.54,4.54,0,0,0-.08.81v5.78a4.43,4.43,0,0,0,.08.8,4.15,4.15,0,0,0,4.06,3.33h5.77a4.13,4.13,0,0,0,4-3.32,3.86,3.86,0,0,0,.09-.81V69.36a4.43,4.43,0,0,0-.08-.8,4.16,4.16,0,0,0-4.06-3.33Z"/>
<path class="cls-1" d="M68.21,114.27a9.14,9.14,0,0,1-9.1-8.58l-.06-.94H27.65a2.5,2.5,0,0,1,0-5h31.4l.06-.94a9.14,9.14,0,0,1,9.1-8.58H74a9.14,9.14,0,0,1,9.1,8.58l.06.94h50.44a2.5,2.5,0,0,1,0,5H83.15l-.06.94a9.14,9.14,0,0,1-9.1,8.58Zm0-19a4.14,4.14,0,0,0-4,3.32,4.63,4.63,0,0,0-.08.81v5.78a4.43,4.43,0,0,0,.08.8,4.14,4.14,0,0,0,4,3.33H74A4.14,4.14,0,0,0,78,106a4.63,4.63,0,0,0,.08-.81V99.36a4.43,4.43,0,0,0-.08-.8A4.14,4.14,0,0,0,74,95.23Z"/>
</svg>