<svg data-name="Layer 1" viewBox="0 0 274.86 443.01"><defs><style>.smileyFill1{fill:#251d0a;}.smileyFill2{fill:#d1b422;}.smileyFill3{fill:#ff0;}</style></defs><title>Artboard 2</title><path class="smileyFill1" d="M231.49,418.6c-.81,6.75-1.14,11.37-2,15.9-1,5.64-4.6,8.67-10.46,8.5-5.41-.15-10.65-4.34-11-9.69-1.06-14.23-2.18-28.57,4.31-42,.9-1.87,3.2-5,3.78-4.78,3.13,1.2,7.68,2.69,8.5,5.16C227.72,401,229.59,410.78,231.49,418.6Zm-5.69-3.17c-2.17-6.38-4.42-13.07-6.75-19.74-.17-.51-.83-.85-1.26-1.27A6.13,6.13,0,0,0,217,396c-1.1,5.34-3,10.69-3,16s1.54,10.64,3.06,15.78c.71,2.41,3.31,3.29,4.63.18C223.3,424.23,224.28,420.2,225.8,415.43Z"/><path class="smileyFill1" d="M274.4,116.94c-1.08-9.53-1.17-19.31-3.5-28.52-2.61-10.32-6.12-20.69-15-28-6-5-12.24-9.79-17.56-15.45a49,49,0,0,1-10-14.92c-4-10.08-12.48-13.6-21.05-18.26-19.14-10.4-40-9.55-60.53-11.14A7.13,7.13,0,0,1,145,0l-3.85,0-7.64,1.75-3,.39C97.91,3.49,70.36,17.36,46.06,37.85c-22.52,19-38.8,42.44-43.82,72.23C.77,118.78.71,127.72,0,136.54c0,.45,0,.9,0,1.35,1.41,9.62,2.67,19.27,4.27,28.86,2.87,17.23,6.39,34.43,15.2,49.69,5.85,10.13,13.65,19.12,20.2,28.88,6.07,9.05,12.24,18.2,12,29.86a91.44,91.44,0,0,0,4.16,37.88c3,8.95,9.67,13,17.23,10.51,3.35-4.62,6.68-9.25,10.1-13.82.73-1,1.89-2.49,2.67-2.38a4.3,4.3,0,0,1,3,2.43c.9,3.4,1.29,6.94,1.88,10.42.33,10.93.54,21.87,1,32.8.69,15.35,1.59,30.69,2.41,46l6.7,7.53,3,.14.17-.29.19.26,3.08-.06L118,397.79c.16-1.08.32-2.16.49-3.25,0-.74,0-1.49.08-2.23l-.15-33.25c0-5.11-.16-10.23,0-15.33,0-1.16,1.26-2.28,1.93-3.42a12.7,12.7,0,0,1,1.9,2.88c.71,2.16,1.6,4.43,1.54,6.63-.14,5.7,2.78,9.38,7.09,12.4l4.22.19c7.32-2.8,10.42-7.68,10.36-15.93-.06-7,1.93-14.21,3.88-21.08.53-1.87,4.17-3.81,6.46-3.91,1.66-.08,4.61,2.6,5,4.45,1.18,5.91,1.41,12,2,18.05.18,8,.65,15.93.49,23.89-.31,15.26-1.24,30.51-1.41,45.77-.11,9.85,5.28,17.54,12.77,19.81,6.93,2.1,14.15-.27,18.71-6.81,4.7-6.73,3.71-14.52,3.13-22.13q-.31-5.79-.62-11.57c0-.54,0-1.09,0-1.64,0-.86,0-1.72-.05-2.59q-.31-4-.65-7.92l-.06-1.35c-.14-.91-.29-1.82-.43-2.73l-.26-.09.23-.15-.78-3.78c-.15-10-.48-19.93-.35-29.89a84.68,84.68,0,0,1,1.66-13.3c.25-1.44,1.38-2.74,2.11-4.1a24.82,24.82,0,0,0,1.86,3.11c1.84,2.3,3.81,4.49,5.72,6.73l.06,0c4.26,3.56,11.28,2,12.1-2.67l.39-1.82,1.59-2.46c.43-4.7.78-9.41,1.36-14.09a2.76,2.76,0,0,1,1.85-1.9c7.66-.41,12.74-3.72,13.78-11.41,2-14.59,2.91-29.32,4.34-44,.1-1,.63-2.62,1.21-2.74,7.84-1.65,10.49-4.68,10.75-12.59.27-8.15.56-16.29.92-24.43,0-1,.24-2.58.89-2.94,9.65-5.29,11-15.47,12.8-24.34C271.88,165.91,276.32,141.71,274.4,116.94ZM98.33,332.41c-.77-7.87-1.35-15.77-2.08-23.64-.16-1.65-.12-3.65-1-4.82-2.41-3.09-5.65-8.41-7.9-8.09-3.58.49-7.52,4.3-9.61,7.73-1.84,3-3.12,6.64-6.77,5.35-3-1.05-6.81-4.12-7.3-6.83C62.21,294.19,62,286,61.8,277.92c-.34-13.84-2.21-26.8-12.16-37.85-4.37-4.86-6-12.12-9.35-18-4.53-7.91-9.69-15.46-14.36-23.3-7.78-13.08-10-27.84-13-42.48-4.42-21.8,1.34-41.67,9-61.7C26.73,82,32.08,70.08,40.22,59.22c9.16-12.21,21.59-19.81,35-25.4a423.16,423.16,0,0,1,47.94-16.4c15.06-4.23,30.73-3.57,46.06-.82,11,2,22.38,3.78,32.56,8.09,10.44,4.43,19.83,10.58,21,24.93,1.07,12.91,8.23,23.14,22.36,26.89,3.23.86,6.75,4.66,8.09,7.95,10.29,25.08,13.72,51.17,9.32,78-1.49,9-4.18,17.89-6.58,26.75a9.21,9.21,0,0,1-3.25,4.89c-7.43,5.08-8.13,12.8-8.62,20.66-.39,6.31-.12,12.73-1.21,18.91-.59,3.31-3.39,6.26-5.29,9.31-2.18,3.49-5.85,6.69-6.45,10.4-1.72,10.64-2.39,21.46-3.14,32.23-.48,6.83-2.89,12-9.39,15.11-4.3,2-5.57,5.94-6.25,10.61-.47,3.3-2.62,8.67-4.63,9-3.79.56-4.43-3.91-5-7.5a34.8,34.8,0,0,0-3.26-10.13c-1.28-2.56-4-5.17-5.84-.48-2.89,7.31-6.32,14.71-7.33,22.37-1.31,10-.8,20.22-.5,30.33.49,16.28,1.54,32.54,2.16,48.82a28.31,28.31,0,0,1-1.11,9.81c-.78,2.32-3.13,5.87-4.73,5.84-4.74-.09-10.47-1-10.88-7.27-.79-12.38-1-24.79-1.22-37.19-.24-14.15,0-28.3-.33-42.44-.28-13.35-6.14-20.16-16.91-20.33-6.89-.11-14.15,7.13-14.58,14.06-.39,6.45-1.15,12.88-2,19.27-.18,1.35-1.62,2.53-2.49,3.78-1.15-1-2.91-1.74-3.36-3-1.37-3.75-2.28-7.67-3.29-11.55-.54-2.07-.59-4.33-1.44-6.25-2-4.49-6.74-5.37-8.75-1.13-2.76,5.83-5.08,12.36-5.45,18.71-.63,10.92.43,21.93.71,32.9,0,1.81.27,4-.61,5.35a11.42,11.42,0,0,1-5.28,4.3c-.65.24-3.31-2.6-3.63-4.29-1.12-6-1.63-12.12-2.37-18.19Z"/><path class="smileyFill2" d="M196.54,404.52q-.31-5.79-.62-11.57Q196.24,398.74,196.54,404.52Z"/><path class="smileyFill2" d="M141.13,0l-7.64,1.75Z"/><path class="smileyFill2" d="M217.42,330.8l1.59-2.46Z"/><path class="smileyFill2" d="M195.17,380.8l-.06-1.35Z"/><path class="smileyFill2" d="M195.87,391.31c0-.86,0-1.72-.05-2.59C195.84,389.59,195.85,390.45,195.87,391.31Z"/><polygon class="smileyFill2" points="103.9 406.72 104.07 406.43 104.26 406.69 104.1 406.94 103.9 406.72"/><polygon class="smileyFill2" points="194.68 376.72 194.42 376.63 194.65 376.48 194.96 376.57 194.68 376.72"/><path class="smileyFill3" d="M98.33,332.41c-.77-7.87-1.35-15.77-2.08-23.64-.16-1.65-.12-3.65-1-4.82-2.41-3.09-5.65-8.41-7.9-8.09-3.58.49-7.52,4.3-9.61,7.73-1.84,3-3.12,6.64-6.77,5.35-3-1.05-6.81-4.12-7.3-6.83C62.21,294.19,62,286,61.8,277.92c-.34-13.84-2.21-26.8-12.16-37.85-4.37-4.86-6-12.12-9.35-18-4.53-7.91-9.69-15.46-14.36-23.3-7.78-13.08-10-27.84-13-42.48-4.42-21.8,1.34-41.67,9-61.7C26.73,82,32.08,70.08,40.22,59.22c9.16-12.21,21.59-19.81,35-25.4a423.16,423.16,0,0,1,47.94-16.4c15.06-4.23,30.73-3.57,46.06-.82,11,2,22.38,3.78,32.56,8.09,10.44,4.43,19.83,10.58,21,24.93,1.07,12.91,8.23,23.14,22.36,26.89,3.23.86,6.75,4.66,8.09,7.95,10.29,25.08,13.72,51.17,9.32,78-1.49,9-4.18,17.89-6.58,26.75a9.21,9.21,0,0,1-3.25,4.89c-7.43,5.08-8.13,12.8-8.62,20.66-.39,6.31-.12,12.73-1.21,18.91-.59,3.31-3.39,6.26-5.29,9.31-2.18,3.49-5.85,6.69-6.45,10.4-1.72,10.64-2.39,21.46-3.14,32.23-.48,6.83-2.89,12-9.39,15.11-4.3,2-5.57,5.94-6.25,10.61-.47,3.3-2.62,8.67-4.63,9-3.79.56-4.43-3.91-5-7.5a34.8,34.8,0,0,0-3.26-10.13c-1.28-2.56-4-5.17-5.84-.48-2.89,7.31-6.32,14.71-7.33,22.37-1.31,10-.8,20.22-.5,30.33.49,16.28,1.54,32.54,2.16,48.82a28.31,28.31,0,0,1-1.11,9.81c-.78,2.32-3.13,5.87-4.73,5.84-4.74-.09-10.47-1-10.88-7.27-.79-12.38-1-24.79-1.22-37.19-.24-14.15,0-28.3-.33-42.44-.28-13.35-6.14-20.16-16.91-20.33-6.89-.11-14.15,7.13-14.58,14.06-.39,6.45-1.15,12.88-2,19.27-.18,1.35-1.62,2.53-2.49,3.78-1.15-1-2.91-1.74-3.36-3-1.37-3.75-2.28-7.67-3.29-11.55-.54-2.07-.59-4.33-1.44-6.25-2-4.49-6.74-5.37-8.75-1.13-2.76,5.83-5.08,12.36-5.45,18.71-.63,10.92.43,21.93.71,32.9,0,1.81.27,4-.61,5.35a11.42,11.42,0,0,1-5.28,4.3c-.65.24-3.31-2.6-3.63-4.29-1.12-6-1.63-12.12-2.37-18.19ZM175.38,281c5.78.18,12.91-6.55,14.66-14.18,2.91-12.62,7.85-23.5,19.58-30.75,8-5,10.27-14.38,13.33-22.75,2.75-7.52,5.07-15.2,7.54-22.82.91-2.8,2.79-5.86,2.31-8.44-1.44-7.79.78-13.65,7.06-18.24a5.05,5.05,0,0,0,1.79-2.36c.74-2.44,1.21-4.95,1.79-7.44-2.41.62-5.86.44-7.07,2-5.57,7.19-13.19,11.28-20.88,15.45a27.37,27.37,0,0,0-6,4.27c-1,1-2.19,3.54-1.72,4.13,1.08,1.35,3.37,3,4.72,2.63,3.41-.83,6.57-2.68,9.84-4.1.72-.31,1.5-.49,2.24-.73a4.16,4.16,0,0,1,0,1.36,75.84,75.84,0,0,1-2.8,8.27c-3.08,6.76-6.57,13.34-9.56,20.14-4.05,9.22-7.73,18.26-16.26,25-4.59,3.6-7.65,9.89-9.88,15.57-4.51,11.46-9.92,16.09-21.32,17a121.64,121.64,0,0,0-17.55,2.89c-7.59,1.74-12.57-.62-16.64-7.38-6-10-15.06-16.62-26.12-20-6.45-2-11.32-4.5-14.29-11.38-2.41-5.61-6.87-10.67-11.4-14.94-9.14-8.61-19.9-15.74-22.34-29.43-.5-2.8-1.09-4.53,2.81-5.08,1.51-.22,2.8-3,3.83-4.83.17-.3-1.4-2.25-2.32-2.4-4.06-.62-8.18-.76-12.25-1.26-2.68-.33-5.32-1.39-8-1.37-2.85,0-6.16.24-8.34,1.73-1.13.77-.79,4.63-.18,6.84,1.66,6,6.05,6.46,11.14,4.63,4.35-1.57,6.67.46,7.72,4.41.92,3.46,1,7.23,2.44,10.43,2.38,5.32,5,10.75,8.54,15.27,3.3,4.18,8.48,6.83,12,10.87,4,4.6,8.4,9.08,8.59,16.18s7.76,13.42,15,14.24a34.85,34.85,0,0,1,10.36,3.19c9.31,4.32,15.07,12.15,20,20.81,4.46,7.83,10.44,9.86,16.23,5.65,8.49-6.16,17.21-9.85,27.47-4.08A15,15,0,0,0,175.38,281Zm-10.47-91.84c.29,3.62,0,7.44,1.09,10.8.76,2.35,3.69,5.91,5.18,5.7,2.66-.39,6.78-3,7.1-5.08a122.61,122.61,0,0,0,1.35-24.06c-.47-9.72-1.21-19.1,4.62-27.83,3.1-4.65,6.5-9.38,5-15.91-2.14-9.31-9.87-16.91-17.82-16.6-8.31.33-15.33,7.41-16,17.42-.34,4.77,0,10.21,2.06,14.39C163.77,161.08,165.26,174.88,164.91,189.11Zm-42.53-65.78c-2.51-4.88-4.44-12.78-9.42-17.35-7.38-6.77-19.12-1.79-22.35,8-3.59,10.88-.73,21.27,2.17,31.74a179.72,179.72,0,0,1,5,22.38c.66,4.61-1.12,9.61-.26,14.15.53,2.84,3.93,5.14,6,7.68,2.07-2.24,5.15-4.15,6-6.79,3.11-9.39.84-18.79-.77-28.24-.69-4-3.21-9.29,2.41-12.33C118,138.87,120.39,132.59,122.38,123.33Z"/><path class="smileyFill3" d="M225.8,415.43c-1.52,4.77-2.5,8.8-4.09,12.56-1.32,3.11-3.92,2.23-4.63-.18C215.56,422.67,214,417.3,214,412s1.87-10.7,3-16a6.13,6.13,0,0,1,.8-1.57c.43.42,1.09.76,1.26,1.27C221.38,402.36,223.63,409.05,225.8,415.43Z"/><path class="smileyFill1" d="M175.38,281a15,15,0,0,1-3.9-1.09c-10.26-5.77-19-2.08-27.47,4.08-5.79,4.21-11.77,2.18-16.23-5.65-4.93-8.66-10.69-16.49-20-20.81a34.85,34.85,0,0,0-10.36-3.19c-7.23-.82-14.79-7-15-14.24s-4.56-11.58-8.59-16.18c-3.55-4-8.73-6.69-12-10.87-3.58-4.52-6.16-9.95-8.54-15.27-1.43-3.2-1.52-7-2.44-10.43-1-4-3.37-6-7.72-4.41-5.09,1.83-9.48,1.38-11.14-4.63-.61-2.21-.95-6.07.18-6.84,2.18-1.49,5.49-1.71,8.34-1.73,2.65,0,5.29,1,8,1.37,4.07.5,8.19.64,12.25,1.26.92.15,2.49,2.1,2.32,2.4-1,1.82-2.32,4.61-3.83,4.83-3.9.55-3.31,2.28-2.81,5.08,2.44,13.69,13.2,20.82,22.34,29.43,4.53,4.27,9,9.33,11.4,14.94,3,6.88,7.84,9.39,14.29,11.38,11.06,3.42,20.1,10,26.12,20,4.07,6.76,9.05,9.12,16.64,7.38a121.64,121.64,0,0,1,17.55-2.89c11.4-.91,16.81-5.54,21.32-17,2.23-5.68,5.29-12,9.88-15.57,8.53-6.69,12.21-15.73,16.26-25,3-6.8,6.48-13.38,9.56-20.14a75.84,75.84,0,0,0,2.8-8.27,4.16,4.16,0,0,0,0-1.36c-.74.24-1.52.42-2.24.73-3.27,1.42-6.43,3.27-9.84,4.1-1.35.33-3.64-1.28-4.72-2.63-.47-.59.69-3.12,1.72-4.13a27.37,27.37,0,0,1,6-4.27c7.69-4.17,15.31-8.26,20.88-15.45,1.21-1.56,4.66-1.38,7.07-2-.58,2.49-1.05,5-1.79,7.44a5.05,5.05,0,0,1-1.79,2.36c-6.28,4.59-8.5,10.45-7.06,18.24.48,2.58-1.4,5.64-2.31,8.44-2.47,7.62-4.79,15.3-7.54,22.82-3.06,8.37-5.28,17.77-13.33,22.75C197.89,243.27,193,254.15,190,266.77,188.29,274.4,181.16,281.13,175.38,281Z"/><path class="smileyFill1" d="M164.91,189.11c.35-14.23-1.14-28-7.46-41.17-2-4.18-2.4-9.62-2.06-14.39.71-10,7.73-17.09,16-17.42,7.95-.31,15.68,7.29,17.82,16.6,1.5,6.53-1.9,11.26-5,15.91-5.83,8.73-5.09,18.11-4.62,27.83a122.61,122.61,0,0,1-1.35,24.06c-.32,2.13-4.44,4.69-7.1,5.08-1.49.21-4.42-3.35-5.18-5.7C164.91,196.55,165.2,192.73,164.91,189.11Z"/><path class="smileyFill1" d="M122.38,123.33c-2,9.26-4.4,15.54-11.17,19.2-5.62,3-3.1,8.31-2.41,12.33,1.61,9.45,3.88,18.85.77,28.24-.87,2.64-3.95,4.55-6,6.79-2.11-2.54-5.51-4.84-6-7.68-.86-4.54.92-9.54.26-14.15a179.72,179.72,0,0,0-5-22.38c-2.9-10.47-5.76-20.86-2.17-31.74,3.23-9.75,15-14.73,22.35-8C117.94,110.55,119.87,118.45,122.38,123.33Z"/></svg>