<?xml version="1.0" encoding="utf-8"?>
<!-- Generator: Adobe Illustrator 24.0.2, SVG Export Plug-In . SVG Version: 6.00 Build 0)  -->
<svg version="1.1" id="Layer_1" xmlns="http://www.w3.org/2000/svg" xmlns:xlink="http://www.w3.org/1999/xlink" x="0px" y="0px"
	 viewBox="0 0 158.1 144.5" style="enable-background:new 0 0 158.1 144.5;" xml:space="preserve">
<path d="M79,144.5c-22.5,0-45,0-67.5,0c-4.1,0-7.7-1.1-9.8-4.8c-1-1.7-1.6-3.6-1.6-5.6C0,92.8-0.1,51.6,0,10.3
	C-0.2,4.8,4.1,0.2,9.6,0.1c0.2,0,0.3,0,0.5,0c10.3-0.2,20.7,0,31-0.1c3.2,0,5.3,1.8,7,4.1s3.5,5.1,5.2,7.6c0.8,1.4,2.3,2.2,3.9,2
	c29.7,0,59.5,0,89.2,0c7.6,0,11.7,4,11.7,11.7c0,35.8,0,71.5,0,107.2c0,7.7-4,11.7-11.7,11.7C123.9,144.5,101.5,144.5,79,144.5z
	 M79.2,37.8H12.4c-4.8,0-5.6,0.8-5.6,5.7c0,29.5,0,59,0,88.5c0,4.9,0.8,5.7,5.6,5.7c44.4,0,88.8,0,133.2,0c4.8,0,5.6-0.8,5.6-5.5
	v-89c0-4.6-0.8-5.4-5.4-5.4L79.2,37.8z M151.3,31.1v-5.2c0-4.5-0.8-5.2-5.2-5.2c-29.7,0-59.3,0-89,0.1c-3.7,0.2-7.2-1.6-9.3-4.7
	c-1.7-2.5-3.2-5.1-5.1-7.4c-0.8-1-2-1.6-3.3-1.7c-9.3-0.1-18.7-0.1-28-0.1c-3.4,0-4.6,1.2-4.6,4.7c0,5.8,0,11.7,0,17.5
	c0,0.7,0.1,1.5,0.2,2.1L151.3,31.1z"/>
<path d="M96.4,95.2l13.1,7.6c8-16.8,0.9-36.9-15.9-45c-3.7-1.8-7.7-2.8-11.8-3.2v15.1C92,71.2,99.1,80.6,97.7,90.8
	C97.3,92.4,96.9,93.8,96.4,95.2z"/>
<path d="M51.3,107.3c10.5,15.3,31.5,19.2,46.8,8.7c3.4-2.3,6.4-5.3,8.7-8.7l-13.1-7.6c-6.3,8.1-18,9.6-26.1,3.2
	c-1.2-0.9-2.3-2-3.2-3.2L51.3,107.3z"/>
<path d="M76.5,54.6C59,56,45.4,70.6,45.4,88.2c0,5,1.1,10,3.3,14.6l13.1-7.6c-3.9-9.6,0.8-20.4,10.3-24.3c1.4-0.6,2.9-1,4.4-1.2
	V54.6z"/>
</svg>
